<?xml version="1.0" encoding="UTF-8" standalone="no"?>
<svg
   width="5in"
   height="3.5in"
   viewBox="0 0 127 88.9"
   version="1.1"
   id="svg8"
   inkscape:version="1.1.1 (3bf5ae0d25, 2021-09-20)"
   sodipodi:docname="ideas.svg"
   inkscape:export-filename="/opt/react-app/src/images/youtube.png"
   inkscape:export-xdpi="24000.002"
   inkscape:export-ydpi="24000.002"
   xmlns:inkscape="http://www.inkscape.org/namespaces/inkscape"
   xmlns:sodipodi="http://sodipodi.sourceforge.net/DTD/sodipodi-0.dtd"
   xmlns="http://www.w3.org/2000/svg"
   xmlns:svg="http://www.w3.org/2000/svg"
   xmlns:rdf="http://www.w3.org/1999/02/22-rdf-syntax-ns#"
   xmlns:cc="http://creativecommons.org/ns#"
   xmlns:dc="http://purl.org/dc/elements/1.1/">
  <defs
     id="defs2">
    <filter
       style="color-interpolation-filters:sRGB"
       inkscape:label="Clean Edges"
       id="filter13675"
       x="-0.16588356"
       y="-0.26261052"
       width="1.3317671"
       height="1.5252211">
      <feGaussianBlur
         stdDeviation="0.219381"
         result="blur"
         id="feGaussianBlur13669" />
      <feComposite
         in="SourceGraphic"
         in2="blur"
         operator="in"
         result="composite1"
         id="feComposite13671" />
      <feComposite
         in="composite1"
         in2="composite1"
         operator="in"
         result="composite2"
         id="feComposite13673" />
    </filter>
    <filter
       style="color-interpolation-filters:sRGB"
       inkscape:label="Clean Edges"
       id="filter13675-3"
       x="-0.16588356"
       y="-0.26261052"
       width="1.3317671"
       height="1.5252211">
      <feGaussianBlur
         stdDeviation="0.219381"
         result="blur"
         id="feGaussianBlur13669-6" />
      <feComposite
         in="SourceGraphic"
         in2="blur"
         operator="in"
         result="composite1"
         id="feComposite13671-7" />
      <feComposite
         in="composite1"
         in2="composite1"
         operator="in"
         result="composite2"
         id="feComposite13673-5" />
    </filter>
    <filter
       style="color-interpolation-filters:sRGB"
       inkscape:label="Clean Edges"
       id="filter13675-36"
       x="-0.16588356"
       y="-0.26261052"
       width="1.3317671"
       height="1.5252211">
      <feGaussianBlur
         stdDeviation="0.219381"
         result="blur"
         id="feGaussianBlur13669-7" />
      <feComposite
         in="SourceGraphic"
         in2="blur"
         operator="in"
         result="composite1"
         id="feComposite13671-5" />
      <feComposite
         in="composite1"
         in2="composite1"
         operator="in"
         result="composite2"
         id="feComposite13673-3" />
    </filter>
    <filter
       style="color-interpolation-filters:sRGB"
       inkscape:label="Clean Edges"
       id="filter2470"
       x="-0.16588356"
       y="-0.26261052"
       width="1.3317671"
       height="1.5252211">
      <feGaussianBlur
         stdDeviation="0.219381"
         result="blur"
         id="feGaussianBlur2464" />
      <feComposite
         in="SourceGraphic"
         in2="blur"
         operator="in"
         result="composite1"
         id="feComposite2466" />
      <feComposite
         in="composite1"
         in2="composite1"
         operator="in"
         result="composite2"
         id="feComposite2468" />
    </filter>
    <filter
       style="color-interpolation-filters:sRGB"
       inkscape:label="Clean Edges"
       id="filter13675-2"
       x="-0.16588356"
       y="-0.26261052"
       width="1.3317671"
       height="1.5252211">
      <feGaussianBlur
         stdDeviation="0.219381"
         result="blur"
         id="feGaussianBlur13669-0" />
      <feComposite
         in="SourceGraphic"
         in2="blur"
         operator="in"
         result="composite1"
         id="feComposite13671-2" />
      <feComposite
         in="composite1"
         in2="composite1"
         operator="in"
         result="composite2"
         id="feComposite13673-37" />
    </filter>
    <filter
       style="color-interpolation-filters:sRGB"
       inkscape:label="Clean Edges"
       id="filter5339"
       x="-0.16588356"
       y="-0.26261052"
       width="1.3317671"
       height="1.5252211">
      <feGaussianBlur
         stdDeviation="0.219381"
         result="blur"
         id="feGaussianBlur5333" />
      <feComposite
         in="SourceGraphic"
         in2="blur"
         operator="in"
         result="composite1"
         id="feComposite5335" />
      <feComposite
         in="composite1"
         in2="composite1"
         operator="in"
         result="composite2"
         id="feComposite5337" />
    </filter>
    <filter
       style="color-interpolation-filters:sRGB"
       inkscape:label="Clean Edges"
       id="filter13675-36-7"
       x="-0.16588356"
       y="-0.26261053"
       width="1.3317671"
       height="1.5252211">
      <feGaussianBlur
         stdDeviation="0.219381"
         result="blur"
         id="feGaussianBlur13669-7-5" />
      <feComposite
         in="SourceGraphic"
         in2="blur"
         operator="in"
         result="composite1"
         id="feComposite13671-5-3" />
      <feComposite
         in="composite1"
         in2="composite1"
         operator="in"
         result="composite2"
         id="feComposite13673-3-5" />
    </filter>
    <filter
       style="color-interpolation-filters:sRGB"
       inkscape:label="Clean Edges"
       id="filter5559"
       x="-0.16588356"
       y="-0.26261052"
       width="1.3317671"
       height="1.5252211">
      <feGaussianBlur
         stdDeviation="0.219381"
         result="blur"
         id="feGaussianBlur5553" />
      <feComposite
         in="SourceGraphic"
         in2="blur"
         operator="in"
         result="composite1"
         id="feComposite5555" />
      <feComposite
         in="composite1"
         in2="composite1"
         operator="in"
         result="composite2"
         id="feComposite5557" />
    </filter>
    <filter
       style="color-interpolation-filters:sRGB"
       inkscape:label="Clean Edges"
       id="filter13675-36-7-3"
       x="-0.16588356"
       y="-0.26261053"
       width="1.3317671"
       height="1.5252211">
      <feGaussianBlur
         stdDeviation="0.219381"
         result="blur"
         id="feGaussianBlur13669-7-5-5" />
      <feComposite
         in="SourceGraphic"
         in2="blur"
         operator="in"
         result="composite1"
         id="feComposite13671-5-3-6" />
      <feComposite
         in="composite1"
         in2="composite1"
         operator="in"
         result="composite2"
         id="feComposite13673-3-5-2" />
    </filter>
    <filter
       style="color-interpolation-filters:sRGB"
       inkscape:label="Clean Edges"
       id="filter13675-36-7-3-1"
       x="-0.16588356"
       y="-0.26261053"
       width="1.3317671"
       height="1.5252211">
      <feGaussianBlur
         stdDeviation="0.219381"
         result="blur"
         id="feGaussianBlur13669-7-5-5-2" />
      <feComposite
         in="SourceGraphic"
         in2="blur"
         operator="in"
         result="composite1"
         id="feComposite13671-5-3-6-7" />
      <feComposite
         in="composite1"
         in2="composite1"
         operator="in"
         result="composite2"
         id="feComposite13673-3-5-2-0" />
    </filter>
    <filter
       style="color-interpolation-filters:sRGB"
       inkscape:label="Clean Edges"
       id="filter90730"
       x="-0.20195079"
       y="-0.34978119"
       width="1.4039016"
       height="1.6995624">
      <feGaussianBlur
         stdDeviation="0.901287"
         result="blur"
         id="feGaussianBlur90724" />
      <feComposite
         in="SourceGraphic"
         in2="blur"
         operator="in"
         result="composite1"
         id="feComposite90726" />
      <feComposite
         in="composite1"
         in2="composite1"
         operator="in"
         result="composite2"
         id="feComposite90728" />
    </filter>
  </defs>
  <sodipodi:namedview
     id="base"
     pagecolor="#ffffff"
     bordercolor="#666666"
     borderopacity="1.0"
     inkscape:pageopacity="0.0"
     inkscape:pageshadow="2"
     inkscape:zoom="1.3833333"
     inkscape:cx="318.79518"
     inkscape:cy="235.30121"
     inkscape:document-units="mm"
     inkscape:current-layer="g94544"
     inkscape:document-rotation="0"
     showgrid="false"
     inkscape:window-width="1920"
     inkscape:window-height="1013"
     inkscape:window-x="0"
     inkscape:window-y="32"
     inkscape:window-maximized="1"
     units="in"
     height="5mm"
     inkscape:snap-object-midpoints="true"
     inkscape:snap-others="true"
     inkscape:snap-global="true"
     inkscape:pagecheckerboard="0"
     inkscape:snap-bbox="true"
     inkscape:snap-smooth-nodes="true"
     inkscape:snap-intersection-paths="true"
     inkscape:object-paths="true"
     inkscape:snap-bbox-midpoints="true"
     inkscape:bbox-nodes="true"
     inkscape:bbox-paths="true"
     inkscape:snap-page="true"
     showguides="false">
    <inkscape:grid
       type="xygrid"
       id="grid887"
       empcolor="#a3a3a3"
       empopacity="0.46666667"
       color="#bfbfbf"
       opacity="0.66666667"
       empspacing="0"
       spacingx="1.5875"
       spacingy="1.5875"
       units="in"
       dotted="false"
       originx="0"
       originy="0" />
  </sodipodi:namedview>
  <metadata
     id="metadata5">
    <rdf:RDF>
      <cc:Work
         rdf:about="">
        <dc:format>image/svg+xml</dc:format>
        <dc:type
           rdf:resource="http://purl.org/dc/dcmitype/StillImage" />
      </cc:Work>
    </rdf:RDF>
  </metadata>
  <g
     inkscape:label="Capa 1"
     inkscape:groupmode="layer"
     id="layer1">
    <text
       xml:space="preserve"
       style="font-style:normal;font-weight:normal;font-size:0.615122px;line-height:1.25;font-family:sans-serif;letter-spacing:0px;word-spacing:0px;fill:#000000;fill-opacity:1;stroke:none;stroke-width:0.0512602"
       x="1.252507"
       y="3.5332949"
       id="text3385"
       inkscape:transform-center-x="-0.13777169"
       inkscape:transform-center-y="-2.4264396"><tspan
         sodipodi:role="line"
         id="tspan3383"
         style="font-style:normal;font-variant:normal;font-weight:normal;font-stretch:normal;font-size:0.615122px;font-family:'Latin Modern Sans';-inkscape-font-specification:'Latin Modern Sans';stroke-width:0.0512602"
         x="1.252507"
         y="3.5332949" /></text>
    <g
       id="g252492">
      <g
         id="g196456">
        <g
           id="g180603"
           style="stroke-width:2;stroke-miterlimit:4;stroke-dasharray:none"
           transform="translate(-30.703269,-51.994767)" />
      </g>
    </g>
    <path
       id="path908-6"
       style="display:none;fill:#fece00;fill-opacity:1;stroke:none;stroke-width:1.75;stroke-linecap:round;stroke-linejoin:round;stroke-dashoffset:0.0175;stroke-opacity:1;paint-order:fill markers stroke;stop-color:#000000"
       d="m 166.6875,57.149997 c -8.12219,3e-6 -15.57429,4.881711 -18.86293,10.934732 a 8.9487313,12.245581 61.776621 0 0 13.67979,-0.903819 8.9487313,12.245581 61.776621 0 0 6.43009,-9.991122 c -0.41371,-0.02532 -0.82922,-0.03979 -1.24695,-0.03979 z" />
    <g
       id="g94544"
       transform="translate(-0.54147459,-22.931557)">
      <g
         id="g81993"
         transform="matrix(0.81125193,0,0,0.81125193,-40.544823,17.332132)"
         style="filter:url(#filter90730)">
        <path
           id="path75452"
           style="opacity:1;vector-effect:none;fill:#ffc300;stroke-width:0.618718;stroke-linecap:round;stroke-linejoin:round;stroke-dashoffset:0.0661417;paint-order:fill markers stroke;stop-color:#000000;stop-opacity:1"
           sodipodi:type="inkscape:offset"
           inkscape:radius="0.0012648997"
           inkscape:original="M 166.71484 58.957031 C 159.49352 58.946171 152.3063 63.170421 149.03711 69.646484 C 147.35382 72.940777 147.47889 77.029957 149.41992 80.1875 C 152.48125 85.506447 158.05584 89.148551 160.11328 95.078125 L 173.25977 95.078125 C 175.47169 88.783452 182.19126 85.536955 184.63867 79.375 C 186.40728 75.251995 185.44748 70.334892 182.65234 66.900391 C 178.93216 62.060289 172.84543 58.934208 166.71484 58.957031 z "
           d="m 166.71484,58.957031 c -7.22132,-0.01086 -14.40854,4.21339 -17.67773,10.689453 -1.68329,3.294293 -1.55822,7.383473 0.38281,10.541016 3.06133,5.318947 8.63592,8.961051 10.69336,14.890625 h 13.14649 c 2.21192,-6.294673 8.93149,-9.54117 11.3789,-15.703125 1.76861,-4.123005 0.80881,-9.040108 -1.98633,-12.474609 -3.72018,-4.840102 -9.80691,-7.966183 -15.9375,-7.94336 z" />
        <path
           id="path75452-6"
           style="vector-effect:none;fill:#e6e09a;fill-opacity:0.72094;stroke-width:0.618718;stroke-linecap:round;stroke-linejoin:round;stroke-dashoffset:0.0661417;paint-order:fill markers stroke;stop-color:#000000"
           sodipodi:type="inkscape:offset"
           inkscape:radius="0"
           inkscape:original="M 166.71289 58.957031 C 159.7673 58.946581 152.85443 62.853477 149.42773 68.914062 A 8.9487313 12.245581 61.776621 0 0 161.50195 67.179688 A 8.9487313 12.245581 61.776621 0 0 167.75977 58.984375 C 167.4108 58.965455 167.06257 58.955731 166.71289 58.957031 z "
           d="m 166.71289,58.957031 c -6.94559,-0.01045 -13.85846,3.896446 -17.28516,9.957031 a 8.9487313,12.245581 61.776621 0 0 12.07422,-1.734374 8.9487313,12.245581 61.776621 0 0 6.25782,-8.195313 c -0.34897,-0.01892 -0.6972,-0.02864 -1.04688,-0.02734 z" />
        <path
           id="path75452-6-6"
           style="vector-effect:none;fill:#f7ffd8;fill-opacity:0.72094;stroke-width:0.618718;stroke-linecap:round;stroke-linejoin:round;stroke-dashoffset:0.0661417;paint-order:fill markers stroke;stop-color:#000000"
           d="m 162.54238,59.414241 c -4.08457,0.900946 -7.90507,3.090527 -10.71097,6.18412 a 8.9487313,12.245581 61.776621 0 0 6.47402,-2.32854 8.9487313,12.245581 61.776621 0 0 4.23695,-3.85558 z" />
      </g>
      <path
         style="fill:#ffc300;stroke:#ffc300;stroke-width:1.5;stroke-linecap:round;stroke-linejoin:miter;stroke-miterlimit:4;stroke-dasharray:none;stroke-opacity:1"
         d="m 78.659096,68.675438 c -3.55619,-2.749315 -3.60391,-2.764402 -3.60391,-2.764402"
         id="path92752-7-2-0" />
      <path
         id="rect894"
         style="font-variation-settings:normal;opacity:1;vector-effect:none;fill:#ffaad7;fill-opacity:1;stroke:#8e613f;stroke-width:1.56536;stroke-linecap:square;stroke-linejoin:round;stroke-miterlimit:4;stroke-dasharray:none;stroke-dashoffset:0;stroke-opacity:1;-inkscape-stroke:none;paint-order:fill markers stroke;stop-color:#000000;stop-opacity:1"
         d="m 84.243753,28.426274 h 20.863037 c 4.07861,0 8.66585,2.337615 10.75043,5.843267 2.97503,5.00313 2.4509,13.092747 0,17.4625 -2.4509,4.369753 -7.67331,6.568745 -10.75043,6.568745 H 92.13135 l -19.587753,7.718755 11.700156,-7.718755 c 1.526778,-1.007237 -7.388942,-2.27555 -9.661532,-6.568745 -2.27259,-4.293195 -2.858999,-12.392172 0,-17.4625 1.848604,-3.27843 5.897832,-5.843267 9.661532,-5.843267 z"
         sodipodi:nodetypes="ssazzccszas" />
      <path
         id="rect894-6"
         style="font-variation-settings:normal;fill:#ffaad7;fill-opacity:1;stroke:#fffbf8;stroke-width:1.565;stroke-linecap:round;stroke-linejoin:round;stroke-miterlimit:4;stroke-dasharray:1.565, 3.13;stroke-dashoffset:0.01565;stroke-opacity:1;paint-order:fill markers stroke;stop-color:#000000"
         sodipodi:type="inkscape:offset"
         inkscape:radius="-3.1860535"
         inkscape:original="M 81.046875 31.146484 C 77.283174 31.146484 73.23337 33.711804 71.384766 36.990234 C 68.525767 42.060562 69.112176 50.157977 71.384766 54.451172 C 73.657356 58.744367 82.573653 60.014247 81.046875 61.021484 L 69.347656 68.740234 L 88.935547 61.021484 L 101.91016 61.021484 C 104.98728 61.021484 110.20926 58.820925 112.66016 54.451172 C 115.11106 50.081419 115.63519 41.993364 112.66016 36.990234 C 110.57558 33.484582 105.98877 31.146484 101.91016 31.146484 L 81.046875 31.146484 z "
         d="m 81.046875,34.332031 c -2.315969,0 -5.666681,2.058965 -6.886719,4.222657 -1.027314,1.821902 -1.577162,4.617578 -1.513672,7.384765 0.06349,2.767188 0.752869,5.506752 1.554688,7.021485 0.391025,0.738693 2.505875,2.155728 4.677734,3.072265 1.08593,0.458269 2.080164,0.807535 3.044922,1.289063 0.482379,0.240764 0.989066,0.299734 1.810547,1.421875 0.126495,0.172791 0.226625,0.490715 0.337891,0.767578 l 3.695312,-1.455078 a 3.1863721,3.1863721 0 0 1 1.167969,-0.220703 h 12.974613 c 0.77907,0 2.50182,-0.389367 4.07617,-1.253907 1.57435,-0.86454 3.02973,-2.147587 3.89453,-3.689453 0.86258,-1.537907 1.57266,-4.25826 1.62891,-7 0.0562,-2.74174 -0.52787,-5.490786 -1.58789,-7.273437 -1.3533,-2.275846 -5.15074,-4.28711 -8.01172,-4.28711 z"
         transform="translate(3.196478,-2.7201016)" />
      <path
         style="font-variation-settings:normal;fill:#f7d0d0;fill-opacity:1;stroke:#8e613f;stroke-width:1.51333;stroke-linecap:square;stroke-linejoin:round;stroke-miterlimit:4;stroke-dasharray:none;stroke-dashoffset:0;stroke-opacity:1;paint-order:fill markers stroke;stop-color:#000000"
         d="m 27.294435,75.061511 c 0.03338,3.045259 -2.969623,3.045259 0,8.041618 -3.010439,2.68054 -3.348978,6.564068 -3.348978,10.20198 0,6.074959 4.197971,20.052851 9.388415,8.825821 1.501571,-3.003022 3.216913,-3.009642 6.00604,-3.003022 2.789127,0.007 4.154491,0 6.006034,3.206982 6.245922,10.81824 9.00906,-3.206982 9.00906,-9.213021 0.08058,-3.282158 0.0076,-7.295961 -3.00302,-9.976501 3.010454,-2.68054 -0.05089,-5.738999 0,-8.041619"
         id="path2865-5"
         sodipodi:nodetypes="ccsczcccc" />
      <path
         id="path1122-6"
         style="fill:#f7d0d0;fill-opacity:1;stroke:#8e613f;stroke-width:1.51333;stroke-linecap:square;stroke-linejoin:round;stroke-miterlimit:4;stroke-dasharray:none;paint-order:fill markers stroke"
         d="m 67.774109,54.105353 c 1.595999,20.998396 -12.134094,23.14802 -27.102243,23.14802 -14.968149,0 -28.517657,-2.149624 -27.102231,-23.14802 0.21012,-3.117216 1.042234,-6.093323 2.398254,-8.811118 -1.188963,-3.698742 -7.8897991,-13.330718 -5.157043,-16.194317 2.732755,-2.863598 16.130174,4.172235 16.516986,3.961552 6.975657,-4.46766 21.297564,-3.917646 27.027174,0 3.052922,-0.707088 12.437461,-6.913671 15.896769,-2.774011 3.459309,4.139658 -6.019812,11.597678 -4.913245,15.026745 1.356497,2.712899 2.199272,5.682222 2.435579,8.791149 z"
         sodipodi:nodetypes="ssscccczcs" />
      <circle
         style="font-variation-settings:normal;vector-effect:none;fill:#3e3e3e;fill-opacity:1;stroke:none;stroke-width:2.51382;stroke-linecap:round;stroke-linejoin:round;stroke-miterlimit:4;stroke-dasharray:none;stroke-dashoffset:0;stroke-opacity:1;-inkscape-stroke:none;paint-order:stroke markers fill;stop-color:#000000"
         id="path6116-2"
         cx="24.324804"
         cy="54.082607"
         r="3.0030198" />
      <path
         id="ellipse31481-9"
         style="vector-effect:none;fill:#f6afbe;fill-opacity:1;stroke-width:1.05601;stroke-linecap:round;stroke-linejoin:round;paint-order:stroke markers fill;filter:url(#filter13675-36-7);stop-color:#000000"
         d="m 9.668885,23.62784 a 1.587,1.0024627 0 0 1 -1.587,1.002462 1.587,1.0024627 0 0 1 -1.587,-1.002462 1.587,1.0024627 0 0 1 1.587,-1.002463 1.587,1.0024627 0 0 1 1.587,1.002463 z"
         transform="matrix(1.8916661,0,0,1.8916661,9.0507997,15.329211)" />
      <path
         id="ellipse31481-6-1"
         style="font-variation-settings:normal;vector-effect:none;fill:#f6afbe;fill-opacity:1;stroke-width:1.05601;stroke-linecap:round;stroke-linejoin:round;stroke-miterlimit:4;stroke-dasharray:none;stroke-dashoffset:0;stroke-opacity:1;-inkscape-stroke:none;paint-order:stroke markers fill;filter:url(#filter13675-36-7);stop-color:#000000"
         d="m 25.474647,23.62784 a 1.587,1.0024627 0 0 1 -1.587,1.002462 1.587,1.0024627 0 0 1 -1.587,-1.002462 1.587,1.0024627 0 0 1 1.587,-1.002463 1.587,1.0024627 0 0 1 1.587,1.002463 z"
         transform="matrix(1.8916661,0,0,1.8916661,9.0507997,15.329211)" />
      <path
         style="fill:none;stroke:#8e613f;stroke-width:1.51333;stroke-linecap:round;stroke-linejoin:miter;stroke-miterlimit:4;stroke-dasharray:none;stroke-opacity:1"
         d="m 39.33991,63.099212 c 0,4.163159 0,4.163159 0,4.163159"
         id="path7401-2" />
      <path
         id="circle6833-7"
         style="fill:none;stroke:#8e613f;stroke-width:1.51333;stroke-linecap:square;stroke-linejoin:round;stroke-miterlimit:4;stroke-dasharray:none;stroke-opacity:1;stop-color:#000000"
         d="m 42.746407,64.934548 c 2e-6,1.881354 -1.525141,3.406495 -3.406495,3.406495 -1.881355,0 -3.406495,-1.525141 -3.406495,-3.406495 0,-1.881355 -0.07711,-5.522375 -0.07711,-5.522375 1.620957,0 6.972891,0 6.972891,0 0,0 -0.0828,4.581697 -0.0828,5.522375 z"
         sodipodi:nodetypes="sssccs" />
      <path
         id="path9254-0"
         style="fill:#e1929a;fill-opacity:1;stroke:#8e613f;stroke-width:1.51333;stroke-linecap:round;stroke-linejoin:round;stroke-miterlimit:4;stroke-dasharray:none;paint-order:normal;stop-color:#000000"
         d="m 48.348966,57.08563 c 0,3.321209 -3.630221,6.013582 -9.009054,6.013582 -5.378839,0 -9.00906,-2.692373 -9.00906,-6.013582 0,-3.321208 2.900035,-6.013581 8.278873,-6.013581 5.378837,0 9.739241,2.692373 9.739241,6.013581 z"
         sodipodi:nodetypes="sssss" />
      <path
         id="path6116-5-9"
         style="fill:#8e613f;fill-opacity:1;stroke-width:1.51333;stroke-linecap:round;stroke-linejoin:round;stroke-miterlimit:4;stroke-dasharray:none;paint-order:stroke markers fill;stop-color:#000000"
         d="m 36.336888,57.085631 a 1.5015114,1.5015114 0 0 1 -1.50151,1.501512 1.5015114,1.5015114 0 0 1 -1.501511,-1.501512 1.5015114,1.5015114 0 0 1 1.501511,-1.501511 1.5015114,1.5015114 0 0 1 1.50151,1.501511 z" />
      <path
         id="path6116-5-3-3"
         style="fill:#8e613f;fill-opacity:1;stroke-width:1.51333;stroke-linecap:round;stroke-linejoin:round;stroke-miterlimit:4;stroke-dasharray:none;paint-order:stroke markers fill;stop-color:#000000"
         d="m 45.345946,57.08563 a 1.5015114,1.5015114 0 0 1 -1.501504,1.501512 1.5015114,1.5015114 0 0 1 -1.501512,-1.501512 1.5015114,1.5015114 0 0 1 1.501512,-1.501512 1.5015114,1.5015114 0 0 1 1.501504,1.501512 z" />
      <circle
         style="font-variation-settings:normal;vector-effect:none;fill:#3e3e3e;fill-opacity:1;stroke:none;stroke-width:2.51382;stroke-linecap:round;stroke-linejoin:round;stroke-miterlimit:4;stroke-dasharray:none;stroke-dashoffset:0;stroke-opacity:1;-inkscape-stroke:none;paint-order:stroke markers fill;stop-color:#000000"
         id="path6116-7-6"
         cx="54.355003"
         cy="54.082607"
         r="3.0030198" />
      <path
         style="font-variation-settings:normal;fill:#f7d0d0;fill-opacity:1;stroke:#8e613f;stroke-width:1.51333;stroke-linecap:round;stroke-linejoin:round;stroke-miterlimit:4;stroke-dasharray:none;stroke-dashoffset:0;stroke-opacity:1;paint-order:fill markers stroke;stop-color:#000000"
         d="m 32.77622,83.671056 c 2.85485,-4.73503 5.224767,-8.879085 4.807077,-9.394142 -0.399729,-0.359298 -1.40986,0.972921 -1.808412,0.569151 -0.301098,-0.305044 0.899106,-1.776407 0.562007,-2.189803 -1.189309,-0.441181 -5.624065,3.553255 -7.218801,6.325745"
         id="path20355-0"
         sodipodi:nodetypes="ccscc" />
      <path
         style="font-variation-settings:normal;fill:#f7d0d0;fill-opacity:1;stroke:#8e613f;stroke-width:1.51333;stroke-linecap:round;stroke-linejoin:round;stroke-miterlimit:4;stroke-dasharray:none;stroke-dashoffset:0;stroke-opacity:1;paint-order:fill markers stroke;stop-color:#000000"
         d="m 45.345946,79.664099 c -3.370118,4.383253 -6.191821,8.233931 -5.834816,8.792766 0.356706,0.402044 1.510494,-0.80789 1.861018,-0.36179 0.264816,0.337022 -1.09351,1.663803 -0.805131,2.112544 1.132033,0.57236 7.127603,-4.518384 7.885499,-5.472198"
         id="path20355-5-6"
         sodipodi:nodetypes="ccscc" />
      <path
         id="path55751-2"
         style="font-variation-settings:normal;vector-effect:none;fill:#e1929a;fill-opacity:1;stroke:#8e613f;stroke-width:1.51333;stroke-linecap:square;stroke-linejoin:round;stroke-miterlimit:4;stroke-dasharray:none;stroke-dashoffset:0;stroke-opacity:1;-inkscape-stroke:none;paint-order:fill markers stroke;stop-color:#000000"
         inkscape:transform-center-x="-0.50345102"
         inkscape:transform-center-y="0.62383211"
         d="m 23.445813,35.408804 c -2.293775,1.421415 -4.192599,3.531781 -5.303991,5.603283 -0.182395,0.33995 -6.107333,-7.357425 -4.426807,-9.146116 1.542973,-1.642284 10.058726,3.339623 9.730798,3.542833 z"
         sodipodi:nodetypes="ssss" />
      <path
         id="path55751-9-6"
         style="font-variation-settings:normal;vector-effect:none;fill:#e1929a;fill-opacity:1;stroke:#8e613f;stroke-width:1.51333;stroke-linecap:square;stroke-linejoin:round;stroke-miterlimit:4;stroke-dasharray:none;stroke-dashoffset:0;stroke-opacity:1;-inkscape-stroke:none;paint-order:fill markers stroke;stop-color:#000000"
         inkscape:transform-center-x="0.5138195"
         inkscape:transform-center-y="0.6138433"
         d="m 57.263552,35.962249 c 2.303141,1.406183 4.215899,3.50392 5.340987,5.568013 0.184627,0.338735 6.058459,-7.397729 4.366118,-9.175244 -1.553816,-1.632026 -10.036388,3.406198 -9.707105,3.607231 z"
         sodipodi:nodetypes="ssss" />
      <path
         style="font-variation-settings:normal;fill:#f7d0d0;fill-opacity:1;stroke:#8e613f;stroke-width:1.51333;stroke-linecap:round;stroke-linejoin:round;stroke-miterlimit:4;stroke-dasharray:none;stroke-dashoffset:0;stroke-opacity:1;paint-order:fill markers stroke;stop-color:#000000"
         d="m 45.345946,98.427098 c -2.343549,0.92427 -9.042383,0.86918 -12.012074,0.0735"
         id="path63004-1"
         sodipodi:nodetypes="cc" />
      <path
         style="font-variation-settings:normal;fill:none;fill-opacity:1;stroke:#8e613f;stroke-width:1.51333;stroke-linecap:round;stroke-linejoin:bevel;stroke-miterlimit:4;stroke-dasharray:none;stroke-dashoffset:0;stroke-opacity:1;paint-order:fill markers stroke;stop-color:#000000"
         d="m 54.355006,93.121869 c 1.262857,-0.836629 4.482473,-2.949741 5.445256,-1.130677 0.362046,0.771535 -0.399237,1.984127 -1.407835,1.811409 -1.008599,-0.172729 -2.349147,-2.884429 -1.089581,-4.623761"
         id="path3518-8"
         sodipodi:nodetypes="cccc" />
      <path
         style="fill:#ff6766;fill-opacity:1;stroke:#8e613f;stroke-width:0.189166;stroke-linecap:round;stroke-linejoin:round;stroke-miterlimit:4;stroke-dasharray:none;stroke-opacity:1;stop-color:#000000"
         d="m 38.138377,67.282724 c -0.21419,-0.107031 -0.51264,-0.331853 -0.691276,-0.520734 -0.586515,-0.620154 -0.766115,-1.170326 -0.766115,-2.346865 v -0.777397 l 0.297175,0.04139 c 0.16344,0.02277 0.578061,0.07054 0.921366,0.106122 0.343306,0.03558 0.630614,0.07114 0.638456,0.079 0.03358,0.03358 0.04769,3.606917 0.01419,3.606872 -0.02031,-2.5e-5 -0.206547,-0.0848 -0.413851,-0.188391 z"
         id="path13303-7" />
      <path
         style="fill:#ff6766;fill-opacity:1;stroke:#8e613f;stroke-width:0.0945828;stroke-linecap:round;stroke-linejoin:round;stroke-miterlimit:4;stroke-dasharray:none;stroke-opacity:1;stop-color:#000000"
         d="m 40.086756,67.37332 c 0.01079,-0.05376 0.01958,-0.8692 0.01958,-1.812078 v -1.714319 l 0.164235,-0.01684 c 0.09033,-0.0093 0.341362,-0.03183 0.557866,-0.0502 0.216508,-0.01835 0.568421,-0.05936 0.782037,-0.09114 0.213618,-0.03178 0.392258,-0.05442 0.396977,-0.05034 0.0045,0.004 -0.0045,0.407095 -0.02052,0.895576 -0.02467,0.753619 -0.03914,0.922844 -0.09534,1.117163 -0.220941,0.764004 -0.777492,1.399614 -1.502845,1.716337 -0.299752,0.130884 -0.327079,0.131414 -0.301965,0.0058 z"
         id="path13342-9" />
      <g
         aria-label="Ideas"
         id="text7668"
         style="font-size:14.7131px;line-height:0.65;font-family:'Butterfly Kids';-inkscape-font-specification:'Butterfly Kids';letter-spacing:-1.49893px;word-spacing:0px;stroke-width:0.367829">
        <path
           d="m 82.95795,39.596609 c 1.596608,0.221368 3.254905,0.0151 4.807892,0.504311 1.007021,1.078555 -1.160219,1.072409 -1.890742,0.982792 -0.891235,-0.03294 -2.082784,-0.140046 -1.810522,1.119875 0.05614,0.84229 -0.523219,2.335627 -0.104346,2.822731 1.084827,-0.104867 2.135809,-0.502233 3.226766,-0.524052 1.437254,0.506673 0.02082,1.450641 -0.840981,1.44318 -1.907691,0.433142 -3.844831,0.828271 -5.804113,0.899301 -1.485116,-0.04345 -0.360687,-1.273463 0.507214,-1.269973 0.996757,-0.02941 1.533603,-0.579362 1.297079,-1.59521 -0.252893,-1.099832 0.847038,-3.213623 -1.022178,-2.992954 -1.361436,-0.216757 -0.812904,-1.567137 0.356694,-1.382378 0.424646,-0.03755 0.851989,-0.03007 1.277237,-0.0076 z"
           style="font-family:handy;-inkscape-font-specification:handy;fill:#ffffff"
           id="path2972" />
        <path
           d="m 90.410764,45.311487 c 1.040604,0.216058 2.01483,-2.371554 0.573037,-1.742336 -0.713769,0.181344 -2.090542,1.560915 -0.573037,1.742336 z m 0,1.362898 c -1.22849,0.106361 -2.58808,-0.947917 -2.220335,-2.268613 0.345602,-1.677517 2.219069,-2.54429 3.800058,-2.532504 0.05588,-1.248612 0.09483,-2.630499 0.87407,-3.667628 1.393612,-0.899292 1.169815,1.452752 0.985633,2.212048 -0.280614,1.81462 0.07386,3.906231 -1.197315,5.414747 -0.561482,0.626342 -1.428029,0.845497 -2.242111,0.84195 z"
           style="font-family:handy;-inkscape-font-specification:handy;fill:#ffffff"
           id="path2974" />
        <path
           d="m 98.111369,43.019341 c -0.340907,-1.46227 -2.739648,0.838134 -0.911825,0.363956 0.319178,-0.07289 0.636457,-0.183774 0.911825,-0.363956 z m 1.208023,2.570921 c -0.256587,1.209759 -1.858742,1.117909 -2.823076,0.968209 -1.190567,-0.198801 -2.650303,-1.004197 -2.46154,-2.418466 0.291803,-1.451227 1.756166,-2.293497 3.067972,-2.706194 0.969579,-0.409062 3.163162,-0.45169 2.721923,1.157204 -0.419504,1.438568 -2.124444,1.802337 -3.411245,2.008378 -0.399671,0.778052 1.613468,0.988147 2.286467,0.696607 0.217179,0.01033 0.596034,-0.0013 0.619499,0.294262 z"
           style="font-family:handy;-inkscape-font-specification:handy;fill:#ffffff"
           id="path2976" />
        <path
           d="m 102.18791,45.11015 c 1.32579,0.422128 1.73832,-2.585956 0.2855,-1.689105 -0.69901,0.253764 -1.61907,1.571586 -0.2855,1.689105 z m -2.26117,-0.449137 c 0.08479,-1.553853 1.69164,-2.428998 3.04039,-2.788713 1.26773,-0.552621 2.79725,-0.101129 2.86323,1.448805 0.0486,0.896656 1.86552,1.337147 0.86441,2.176232 -0.85032,0.973546 -1.8538,-0.953641 -2.43541,0.28071 -1.17989,0.937781 -3.3276,1.020125 -4.17,-0.396867 -0.112016,-0.222229 -0.163375,-0.472107 -0.16262,-0.720167 z"
           style="font-family:handy;-inkscape-font-specification:handy;fill:#ffffff"
           id="path2978" />
        <path
           d="m 110.13634,40.789145 c 1.10887,-0.519776 1.18635,1.263081 0.0659,1.165431 -0.48814,0.207122 -1.61644,0.755333 -0.47768,0.972568 0.83205,0.303572 2.53384,0.903008 1.43792,1.999087 -0.92554,0.749368 -1.99256,1.589207 -3.20591,1.704595 -1.03743,-0.07799 -0.85486,-1.076001 0.0663,-1.153332 0.76371,-0.109175 1.95771,-1.079886 0.53383,-1.203668 -1.07837,-0.137317 -2.70896,-1.242321 -1.08412,-2.044346 0.77579,-0.623166 1.75498,-1.097919 2.66373,-1.440335 z"
           style="font-family:handy;-inkscape-font-specification:handy;fill:#ffffff"
           id="path2980" />
      </g>
      <path
         id="path908"
         style="fill:none;fill-opacity:1;stroke:#8e613f;stroke-width:1.5;stroke-linecap:round;stroke-linejoin:round;stroke-miterlimit:4;stroke-dasharray:none;stroke-dashoffset:0.0175;stroke-opacity:1;paint-order:fill markers stroke;stop-color:#000000"
         d="m 111.42294,77.861667 c 0,9.015037 -9.01504,11.590762 -10.3029,18.030075 -2.575727,0 -10.302896,0 -12.878626,0 -1.28786,-6.439313 -10.30289,-10.3029 -10.30289,-18.030075 0,-7.004367 7.88075,-14.166488 16.742209,-14.166489 8.861457,1e-6 16.742207,7.162122 16.742207,14.166489 z"
         sodipodi:nodetypes="sccsss" />
      <path
         id="ellipse31481-6-1-9"
         style="font-variation-settings:normal;vector-effect:none;fill:#f6afbe;fill-opacity:0.923573;stroke-width:1.05601;stroke-linecap:round;stroke-linejoin:round;stroke-miterlimit:4;stroke-dasharray:none;stroke-dashoffset:0;stroke-opacity:1;-inkscape-stroke:none;paint-order:stroke markers fill;filter:url(#filter13675-36-7-3);stop-color:#000000"
         d="m 25.474647,23.62784 a 1.587,1.0024627 0 0 1 -1.587,1.002462 1.587,1.0024627 0 0 1 -1.587,-1.002462 1.587,1.0024627 0 0 1 1.587,-1.002463 1.587,1.0024627 0 0 1 1.587,1.002463 z"
         transform="matrix(1.5346178,0,0,1.5346178,50.295154,45.465552)" />
      <path
         id="ellipse31481-6-1-9-9"
         style="font-variation-settings:normal;vector-effect:none;fill:#f6afbe;fill-opacity:0.92;stroke-width:1.05601;stroke-linecap:round;stroke-linejoin:round;stroke-miterlimit:4;stroke-dasharray:none;stroke-dashoffset:0;stroke-opacity:1;-inkscape-stroke:none;paint-order:stroke markers fill;filter:url(#filter13675-36-7-3-1);stop-color:#000000"
         d="m 25.474647,23.62784 a 1.587,1.0024627 0 0 1 -1.587,1.002462 1.587,1.0024627 0 0 1 -1.587,-1.002462 1.587,1.0024627 0 0 1 1.587,-1.002463 1.587,1.0024627 0 0 1 1.587,1.002463 z"
         transform="matrix(1.5346178,0,0,1.5346178,67.037364,45.465552)" />
      <rect
         style="fill:#bababa;fill-opacity:1;stroke:#606060;stroke-width:1.5;stroke-linecap:round;stroke-linejoin:round;stroke-miterlimit:4;stroke-dasharray:none;stroke-dashoffset:0.0661417;stroke-opacity:1;paint-order:fill markers stroke;stop-color:#000000"
         id="rect909"
         width="13.988179"
         height="2.529243"
         x="87.686638"
         y="95.91497"
         rx="1.7622902"
         ry="1.5932238" />
      <path
         style="fill:#bababa;fill-opacity:1;stroke:#606060;stroke-width:1.5;stroke-linecap:round;stroke-linejoin:round;stroke-miterlimit:4;stroke-dasharray:none;stroke-dashoffset:0.0661417;stroke-opacity:1;paint-order:fill markers stroke;stop-color:#000000"
         d="m 88.951234,102.46287 a 5.8070013,5.8070013 0 0 0 5.481379,3.89963 5.8070013,5.8070013 0 0 0 5.48138,-3.89963 c -0.0815,0.008 -0.16471,0.013 -0.24943,0.013 H 89.200674 c -0.0847,0 -0.16796,-0.005 -0.24944,-0.013 z"
         id="path15802" />
      <rect
         style="fill:#bababa;fill-opacity:1;stroke:#606060;stroke-width:1.5;stroke-linecap:round;stroke-linejoin:round;stroke-miterlimit:4;stroke-dasharray:none;stroke-dashoffset:0.0661417;stroke-opacity:1;paint-order:fill markers stroke;stop-color:#000000"
         id="rect909-3"
         width="13.988179"
         height="2.529243"
         x="87.686638"
         y="101.06644"
         rx="1.7622902"
         ry="1.5932238" />
      <rect
         style="fill:#bababa;fill-opacity:1;stroke:#606060;stroke-width:1.5;stroke-linecap:round;stroke-linejoin:round;stroke-miterlimit:4;stroke-dasharray:none;stroke-dashoffset:0.0661417;stroke-opacity:1;paint-order:fill markers stroke;stop-color:#000000"
         id="rect909-3-6"
         width="11.520057"
         height="2.6368535"
         x="88.920708"
         y="98.43689"
         rx="1.4513457"
         ry="1.66101" />
      <circle
         style="fill:#000000;fill-opacity:1;stroke:none;stroke-width:2.12954;stroke-linecap:round;stroke-linejoin:round;stroke-dashoffset:0.0661417;stroke-opacity:1;paint-order:fill markers stroke;stop-color:#000000"
         id="path25496"
         cx="86.95356"
         cy="77.861664"
         r="1.9317944" />
      <circle
         style="fill:#000000;fill-opacity:1;stroke:none;stroke-width:2.12954;stroke-linecap:round;stroke-linejoin:round;stroke-dashoffset:0.0661417;stroke-opacity:1;paint-order:fill markers stroke;stop-color:#000000"
         id="path25496-7"
         cx="103.69577"
         cy="77.861664"
         r="1.9317944" />
      <path
         id="path25754"
         style="font-variation-settings:normal;opacity:1;fill:#eca347;fill-opacity:1;stroke:#8e613f;stroke-width:1.3;stroke-linecap:round;stroke-linejoin:round;stroke-miterlimit:4;stroke-dasharray:none;stroke-dashoffset:0.0175;stroke-opacity:1;paint-order:fill markers stroke;stop-color:#000000;stop-opacity:1"
         d="m 97.256453,79.010362 c 0,0.700032 -0.44912,2.835011 -1.1382,3.51845 -0.65109,0.64574 -1.62536,0.64574 -2.27644,0 -0.689089,-0.683439 -1.138209,-2.818418 -1.138209,-3.51845 z"
         sodipodi:nodetypes="caacc" />
      <path
         style="fill:#ffc300;stroke:#ffc300;stroke-width:1.5;stroke-linecap:round;stroke-linejoin:miter;stroke-miterlimit:4;stroke-dasharray:none;stroke-opacity:1"
         d="M 76.224551,75.210131 C 71.882692,74.046733 71.832855,74.051234 71.832855,74.051234"
         id="path92752" />
      <path
         style="fill:#ffc300;stroke:#ffc300;stroke-width:1.5;stroke-linecap:round;stroke-linejoin:miter;stroke-miterlimit:4;stroke-dasharray:none;stroke-opacity:1"
         d="m 76.438524,82.562381 c -4.341859,1.163398 -4.391696,1.158897 -4.391696,1.158897"
         id="path92752-8" />
      <path
         style="fill:#ffc300;stroke:#ffc300;stroke-width:1.5;stroke-linecap:round;stroke-linejoin:miter;stroke-miterlimit:4;stroke-dasharray:none;stroke-opacity:1"
         d="m 113.13691,74.579425 c 4.34186,-1.163398 4.3917,-1.158897 4.3917,-1.158897"
         id="path92752-7" />
      <path
         style="fill:#ffc300;stroke:#ffc300;stroke-width:1.5;stroke-linecap:round;stroke-linejoin:miter;stroke-miterlimit:4;stroke-dasharray:none;stroke-opacity:1"
         d="m 110.71806,68.675439 c 3.55619,-2.749316 3.60391,-2.764403 3.60391,-2.764403"
         id="path92752-7-2" />
      <path
         style="fill:#ffc300;stroke:#ffc300;stroke-width:1.5;stroke-linecap:round;stroke-linejoin:miter;stroke-miterlimit:4;stroke-dasharray:none;stroke-opacity:1"
         d="m 112.92294,81.931675 c 4.34186,1.163398 4.3917,1.158897 4.3917,1.158897"
         id="path92752-8-9" />
    </g>
  </g>
</svg>
