<?xml version="1.0" encoding="UTF-8" standalone="no"?>
<!-- Generator: Adobe Illustrator 23.1.1, SVG Export Plug-In . SVG Version: 6.00 Build 0)  -->

<svg
   version="1.1"
   id="Layer_1"
   x="0px"
   y="0px"
   viewBox="0 0 479.99998 479.99998"
   xml:space="preserve"
   sodipodi:docname="juanchi.svg"
   inkscape:version="1.1 (c68e22c387, 2021-05-23)"
   width="5in"
   height="5in"
   xmlns:inkscape="http://www.inkscape.org/namespaces/inkscape"
   xmlns:sodipodi="http://sodipodi.sourceforge.net/DTD/sodipodi-0.dtd"
   xmlns="http://www.w3.org/2000/svg"
   xmlns:svg="http://www.w3.org/2000/svg"><defs
   id="defs138">
	
	
	
	
	
	
	
	
	
	
	
	
	
	
	
	
	
	
	
	
	
	
	
	
	
	
	
	
	
	
	
	
	
	
	
	
	
	
	
	
	
	
	
	
	
	
	
	
	
	
	
	
	
	
</defs><sodipodi:namedview
   id="namedview136"
   pagecolor="#ffffff"
   bordercolor="#666666"
   borderopacity="1.0"
   inkscape:pageshadow="2"
   inkscape:pageopacity="0.0"
   inkscape:pagecheckerboard="0"
   showgrid="false"
   inkscape:zoom="1.0974887"
   inkscape:cx="230.5263"
   inkscape:cy="279.27396"
   inkscape:window-width="1920"
   inkscape:window-height="986"
   inkscape:window-x="-11"
   inkscape:window-y="-11"
   inkscape:window-maximized="1"
   inkscape:current-layer="Layer_1"
   units="in"
   inkscape:document-units="in" />
<style
   type="text/css"
   id="style2">
	.st0{fill:#2B9CF2;}
	.st1{fill:#65BDFF;}
	.st2{fill:#FFFFFF;}
	.st3{fill:none;stroke:#4E5A7D;stroke-width:3;stroke-linecap:round;stroke-linejoin:round;stroke-miterlimit:10;}
	.st4{fill:#E08484;}
	.st5{fill:none;stroke:#4E5A7D;stroke-width:6;stroke-linecap:round;stroke-linejoin:round;stroke-miterlimit:10;}
	.st6{fill:#FBE3D5;}
	.st7{fill:#D5B6A5;}
	.st8{fill:#D87171;}
	.st9{fill:#BCAFAA;}
	.st10{fill:#4E5A7D;}
	.st11{fill:#84BDE1;}
	.st12{opacity:0.3;fill:#84BDE1;}
	.st13{fill:none;stroke:#4E5A7D;stroke-width:4;stroke-linecap:round;stroke-linejoin:round;stroke-miterlimit:10;}
	.st14{fill:#F5CFC4;}
	.st15{fill:#FEF0E3;}
	.st16{fill:#EDD4C6;}
	.st17{fill:none;stroke:#4E5A7D;stroke-width:8;stroke-linecap:round;stroke-linejoin:round;stroke-miterlimit:10;}
	.st18{opacity:0.58;fill:none;stroke:#D5B6A5;stroke-width:6;stroke-linecap:round;stroke-linejoin:round;stroke-miterlimit:10;}
	.st19{fill:none;stroke:#FFFFFF;stroke-width:2;stroke-linecap:round;stroke-linejoin:round;stroke-miterlimit:10;}
</style>

<path
   id="XMLID_124_"
   class="st1"
   d="m 786.64723,230.26298 c -26.4216,16.31923 35.43603,193.96564 64.03353,189.92468 17.87343,-2.48673 37.92277,-78.17685 3.41926,-136.30437 -18.02885,-30.61797 -54.39741,-61.70221 -67.45279,-53.62031 z"
   style="fill:#a5ddff;stroke-width:3.0426"
   transform="matrix(0.51082541,0,0,0.51080648,-11.482784,-13.737454)" />
<path
   id="XMLID_179_"
   class="st1"
   d="m 339.81134,84.633333 c -45.07214,19.116807 -95.58403,41.031187 -116.41046,90.144287 -33.57098,78.95396 43.67335,140.96701 6.99395,218.98844 -21.2927,45.07215 -50.97815,32.48303 -93.09729,85.17081 -50.045616,62.79016 -79.264798,170.03077 -35.59145,254.26905 33.26014,64.34437 95.73945,89.67802 148.89349,111.28157 18.3397,7.46021 139.72364,55.01909 255.20158,15.23127 27.66497,-9.48069 38.85529,-23.15775 62.47931,-20.82644 57.195,5.90601 65.74316,82.21781 117.96468,94.6515 43.82877,10.41322 94.80692,-29.84086 126.9791,-70.25037 6.37227,-8.0819 12.12286,-16.1638 16.94091,-23.93486 27.97581,-53.93115 50.51189,-116.25505 56.41789,-178.73436 1.39879,-15.69754 1.86505,-31.23966 1.08795,-46.78178 -2.953,-39.78782 -11.03491,-78.48769 -35.43603,-113.7683 C 808.4062,432.46594 741.73051,379.46732 741.41967,295.22904 739.55461,282.4845 738.31124,269.2737 737.06788,255.90748 730.69561,188.76552 725.25587,116.80552 658.89102,73.909271 571.07805,17.646804 468.6555,40.182875 380.22085,70.023742 c -14.6096,4.507214 -27.97582,9.32527 -40.40951,14.609591 z"
   style="fill:#a5ddff;stroke-width:3.0426"
   transform="matrix(0.51082541,0,0,0.51080648,-11.23834,-13.493009)" />

<path
   id="XMLID_158_"
   class="st4"
   d="M 685.62346,794.13102 H 348.98119 l 12.58911,-53.93115 c 6.52769,-27.97581 41.0312,-48.33598 81.4407,-48.33598 h 148.58265 c 40.40951,0 74.91301,20.51559 81.4407,48.33598 z"
   style="fill:#ff6766;stroke-width:3.0426"
   transform="matrix(0.51082541,0,0,0.51080648,-11.482784,-13.737454)" /><path
   id="XMLID_131_"
   class="st5"
   d="M 685.62346,794.13102 H 348.98119 l 12.58911,-53.93115 c 6.52769,-27.97581 41.0312,-48.33598 81.4407,-48.33598 h 148.58265 c 40.40951,0 74.91301,20.51559 81.4407,48.33598 z"
   transform="matrix(0.51082541,0,0,0.51080648,-11.482784,-13.737454)" /><path
   id="XMLID_109_"
   class="st6"
   d="m 638.53085,753.09983 h -42.27456 c -16.16381,0 -29.21919,-13.05538 -29.21919,-29.21918 v -66.98653 h -99.46955 v 66.98653 c 0,16.1638 -13.05538,29.21918 -29.21918,29.21918 h -42.27456 c -61.85763,0 -111.90325,50.04562 -111.90325,111.90325 v 91.23223 H 750.4341 v -91.23223 c 0,-61.85763 -50.20104,-111.90325 -111.90325,-111.90325 z"
   style="stroke-width:3.0426"
   transform="matrix(0.51082541,0,0,0.51080648,-11.482784,-13.737454)" /><ellipse
   id="XMLID_172_"
   class="st7"
   cx="515.43726"
   cy="657.36041"
   rx="51.599834"
   ry="30.307131"
   style="stroke-width:3.0426"
   transform="matrix(0.51082541,0,0,0.51080648,-11.482784,-13.737454)" /><path
   id="XMLID_175_"
   class="st4"
   d="m 750.4341,865.00308 v 91.23223 H 284.17056 v -91.23223 c 0,-61.85763 50.04562,-111.90325 111.90325,-111.90325 h 42.27456 c 1.08795,0 2.17589,0 3.26384,-0.15542 11.50117,31.23966 41.65288,53.62031 76.93349,53.62031 35.2806,0 65.27689,-22.22523 76.77806,-53.46489 0.31084,0 0.62168,0 1.08795,0 h 42.11914 c 61.70221,0 111.90325,50.04562 111.90325,111.90325 z"
   style="fill:#ff6766;stroke-width:3.0426"
   transform="matrix(0.51082541,0,0,0.51080648,-11.482784,-13.737454)" /><path
   id="XMLID_182_"
   class="st8"
   d="m 473.7844,870.59824 c -43.67336,0 -79.26481,-35.59145 -79.26481,-79.2648 v -38.54445 h 248.51847 v 38.54445 c 0,43.67335 -35.59145,79.2648 -79.2648,79.2648 z"
   style="fill:#bc504f;fill-opacity:1;stroke-width:3.0426"
   transform="matrix(0.51082541,0,0,0.51080648,-11.482784,-13.737454)" /><path
   id="XMLID_136_"
   class="st5"
   d="m 638.53085,753.09983 h -42.27456 c -16.16381,0 -29.21919,-13.05538 -29.21919,-29.21918 v -66.98653 h -99.46955 v 66.98653 c 0,16.1638 -13.05538,29.21918 -29.21918,29.21918 h -42.27456 c -61.85763,0 -111.90325,50.04562 -111.90325,111.90325 v 91.23223 H 750.4341 v -91.23223 c 0,-61.85763 -50.20104,-111.90325 -111.90325,-111.90325 z"
   transform="matrix(0.51082541,0,0,0.51080648,-11.482784,-13.737454)" /><path
   id="XMLID_108_"
   class="st9"
   d="m 625.32005,282.79534 c -1.70964,-23.62402 4.50721,-41.49745 15.54211,-45.38298 10.87949,-3.88553 23.62402,6.83853 27.97582,10.56864 41.18661,34.5035 15.85296,149.98144 8.859,179.66688 z"
   style="fill:#9e988c;fill-opacity:1;stroke-width:3.0426"
   transform="matrix(0.51082541,0,0,0.51080648,-11.482784,-13.737454)" /><path
   id="XMLID_150_"
   class="st5"
   d="m 622.21162,282.79534 c -1.70963,-23.62402 4.50722,-41.49745 15.54212,-45.38298 2.1759,-0.77711 4.35179,-0.93253 6.52769,-0.77711"
   transform="matrix(0.51082541,0,0,0.51080648,-11.482784,-13.737454)" /><path
   id="XMLID_106_"
   class="st5"
   d="m 647.38985,236.63525 c 9.01443,0.77711 17.87344,8.23732 21.44813,11.34575 41.18661,34.5035 15.85296,149.98144 8.859,179.66688 L 625.32005,282.95076"
   transform="matrix(0.51082541,0,0,0.51080648,-11.482784,-13.737454)" /><path
   id="XMLID_105_"
   class="st9"
   d="m 354.88719,438.21652 v -52.37694 c 0,-59.52631 52.68778,-44.13961 112.05867,-44.13961 l 109.88278,4.19637 c 34.5035,0 55.32994,-51.44441 74.91301,-26.26618 -0.62169,-18.3397 -4.04095,-41.65288 -14.76501,-66.054 -5.90601,-13.67706 -30.61798,-65.43232 -87.50213,-89.21176 -19.27223,-8.0819 -35.28061,-9.94696 -45.07214,-11.03491 -37.45651,-4.19637 -52.8432,-10.87948 -117.18757,6.99396 -40.72035,11.19032 -69.93953,31.5505 -70.4058,40.4095 -0.46626,8.08191 19.27223,6.06143 35.43603,18.18429 26.26618,19.58306 -10.41322,63.72268 -15.54211,119.6743 -2.1759,23.93487 -0.15543,57.50584 18.18427,99.62498 z"
   style="fill:#9e988c;fill-opacity:1;stroke-width:3.0426"
   transform="matrix(0.51082541,0,0,0.51080648,-11.482784,-13.737454)" /><path
   id="XMLID_103_"
   class="st5"
   d="m 644.28143,273.47007 c -2.02047,-8.0819 -6.06143,-16.94091 -7.30479,-19.89391 -5.90601,-13.67706 -30.61798,-65.43232 -87.50213,-89.21176 -19.27223,-8.0819 -35.28061,-9.94696 -45.07214,-11.03491 -37.45651,-4.19637 -62.79016,-8.23732 -127.13453,9.63612 -40.72035,11.19032 -63.72268,20.67101 -60.45884,37.76734 2.02048,10.72407 26.11076,7.77106 40.09867,27.97582 18.65054,27.04329 -15.07586,53.93115 -20.20475,110.0382 -2.1759,23.93486 -0.15543,57.50583 18.18427,99.62497 V 385.995 c 0,-59.52631 52.68778,-44.13961 112.05867,-44.13961 l 109.88278,4.19637 c 34.5035,0 55.32994,-51.44441 74.91301,-26.26618"
   transform="matrix(0.51082541,0,0,0.51080648,-11.482784,-13.737454)" /><path
   id="XMLID_102_"
   class="st6"
   d="m 646.30191,312.94705 c -7.77106,-8.39274 -19.42765,-11.96743 -30.61798,-9.63611 -27.82039,5.906 -61.7022,9.32527 -98.3816,9.32527 -38.23361,0 -73.51422,-3.73011 -102.11172,-10.10238 -11.19032,-2.48674 -23.00233,0.93253 -30.77339,9.32527 -18.18428,19.27223 -29.37461,45.22757 -29.37461,73.82506 v 132.72969 c 0,85.17081 69.16243,154.33323 154.33324,154.33323 h 11.19032 c 85.17081,0 154.33323,-69.16242 154.33323,-154.33323 V 385.68416 c -0.15542,-27.97581 -11.0349,-53.46488 -28.59749,-72.73711 z"
   style="stroke-width:3.0426"
   transform="matrix(0.51082541,0,0,0.51080648,-11.482784,-13.737454)" /><path
   id="XMLID_185_"
   class="st7"
   d="m 520.41075,653.7857 h -11.19032 c -85.17081,0 -154.33324,-69.16243 -154.33324,-154.33323 v 16.00838 c 0,85.1708 69.16243,154.33323 154.33324,154.33323 h 11.19032 c 85.17081,0 154.33323,-69.16243 154.33323,-154.33323 v -16.00838 c 0,85.1708 -69.16242,154.33323 -154.33323,154.33323 z"
   style="stroke-width:3.0426"
   transform="matrix(0.51082541,0,0,0.51080648,-11.482784,-13.737454)" /><path
   id="XMLID_101_"
   class="st5"
   d="m 525.69507,526.49575 c 0,0 15.69754,-4.81806 23.00233,-2.48674 5.28433,-22.84691 -10.87948,-43.67335 -10.87948,-43.67335"
   transform="matrix(0.51082541,0,0,0.51080648,-11.482784,-13.737454)" /><path
   id="XMLID_100_"
   class="st5"
   d="m 557.09015,592.39433 c -9.01443,5.90601 -20.5156,9.48069 -33.26013,9.48069 -28.28666,0 -51.28899,-17.71801 -51.28899,-39.47698"
   transform="matrix(0.51082541,0,0,0.51080648,-11.482784,-13.737454)" /><ellipse
   id="XMLID_99_"
   class="st10"
   cx="466.94586"
   cy="427.80331"
   rx="15.85296"
   ry="19.893911"
   style="stroke-width:3.0426"
   transform="matrix(0.51082541,0,0,0.51080648,-11.482784,-13.737454)" /><ellipse
   id="XMLID_132_"
   class="st10"
   cx="584.44434"
   cy="427.02618"
   rx="15.85296"
   ry="19.893911"
   style="stroke-width:3.0426"
   transform="matrix(0.51082541,0,0,0.51080648,-11.482784,-13.737454)" /><path
   id="XMLID_94_"
   class="st5"
   d="m 646.30191,312.94705 c -7.77106,-8.39274 -19.42765,-11.96743 -30.61798,-9.63611 -27.82039,5.906 -61.7022,9.32527 -98.3816,9.32527 -38.23361,0 -73.51422,-3.73011 -102.11172,-10.10238 -11.19032,-2.48674 -23.00233,0.93253 -30.77339,9.32527 -18.18428,19.27223 -29.37461,45.22757 -29.37461,73.82506 v 132.72969 c 0,85.17081 69.16243,154.33323 154.33324,154.33323 h 11.19032 c 85.17081,0 154.33323,-69.16242 154.33323,-154.33323 V 385.68416 c -0.15542,-27.97581 -11.0349,-53.46488 -28.59749,-72.73711 z"
   transform="matrix(0.51082541,0,0,0.51080648,-11.482784,-13.737454)" /><path
   id="XMLID_151_"
   class="st13"
   d="m 636.97664,250.934 c 0,0 32.01676,0 37.61192,60.76968"
   transform="matrix(0.51082541,0,0,0.51080648,-11.482784,-13.737454)" /><path
   id="XMLID_177_"
   class="st13"
   d="m 457.77601,175.71014 c 66.05401,3.41927 127.75621,36.36856 135.21643,93.71898"
   transform="matrix(0.51082541,0,0,0.51080648,-11.482784,-13.737454)" /><path
   id="XMLID_180_"
   class="st13"
   d="m 412.70387,180.68362 c 8.54817,-2.64216 19.42765,-5.1289 30.61797,-4.97348"
   transform="matrix(0.51082541,0,0,0.51080648,-11.482784,-13.737454)" /><path
   id="XMLID_181_"
   class="st13"
   d="m 463.21576,211.14618 c 35.74687,5.75058 82.06238,11.34574 99.31413,70.25037"
   transform="matrix(0.51082541,0,0,0.51080648,-11.482784,-13.737454)" /><path
   id="XMLID_154_"
   class="st5"
   d="m 512.95053,620.21472 c 0,0 8.85901,5.28432 24.86739,0"
   transform="matrix(0.51082541,0,0,0.51080648,-11.482784,-13.737454)" /><circle
   id="XMLID_90_"
   class="st14"
   cx="441.30136"
   cy="509.39941"
   style="stroke-width:3.0426"
   r="29.219181"
   transform="matrix(0.51082541,0,0,0.51080648,-11.482784,-13.737454)" /><circle
   id="XMLID_89_"
   class="st14"
   cx="595.47919"
   cy="509.39941"
   style="stroke-width:3.0426"
   r="29.219181"
   transform="matrix(0.51082541,0,0,0.51080648,-11.482784,-13.737454)" /><path
   id="XMLID_160_"
   class="st15"
   d="m 350.5354,477.22724 h 3.10842 V 395.4757 h -3.10842 c -10.2578,0 -18.65054,8.39274 -18.65054,18.65054 v 44.45046 c 0,10.25779 8.39274,18.65054 18.65054,18.65054 z"
   style="stroke-width:3.0426"
   transform="matrix(0.51082541,0,0,0.51080648,-11.482784,-13.737454)" /><path
   id="XMLID_159_"
   class="st5"
   d="m 350.5354,477.22724 h 3.10842 V 395.4757 h -3.10842 c -10.2578,0 -18.65054,8.39274 -18.65054,18.65054 v 44.45046 c 0,10.25779 8.39274,18.65054 18.65054,18.65054 z"
   transform="matrix(0.51082541,0,0,0.51080648,-11.482784,-13.737454)" /><path
   id="XMLID_190_"
   class="st15"
   d="m 677.85241,477.22724 h -3.10843 V 395.4757 h 3.10843 c 10.25779,0 18.65054,8.39274 18.65054,18.65054 v 44.45046 c 0,10.25779 -8.39275,18.65054 -18.65054,18.65054 z"
   style="stroke-width:3.0426"
   transform="matrix(0.51082541,0,0,0.51080648,-11.482784,-13.737454)" /><path
   id="XMLID_157_"
   class="st5"
   d="m 677.85241,477.22724 h -3.10843 V 395.4757 h 3.10843 c 10.25779,0 18.65054,8.39274 18.65054,18.65054 v 44.45046 c 0,10.25779 -8.39275,18.65054 -18.65054,18.65054 z"
   transform="matrix(0.51082541,0,0,0.51080648,-11.482784,-13.737454)" /><path
   id="XMLID_163_"
   class="st4"
   d="M 563.77326,858.16455 H 473.7844 c -36.83482,0 -66.83111,-29.99629 -66.83111,-66.83111 v -62.16847 h 223.65108 v 62.16847 c 0,36.99024 -29.84087,66.83111 -66.83111,66.83111 z"
   style="stroke-width:3.0426"
   transform="matrix(0.51082541,0,0,0.51080648,-11.482784,-13.737454)" /><path
   id="XMLID_88_"
   class="st5"
   d="m 630.60437,729.16497 v 62.16847 c 0,36.83482 -29.99629,66.83111 -66.83111,66.83111 H 473.7844 c -36.83482,0 -66.83111,-29.99629 -66.83111,-66.83111 v -62.16847"
   transform="matrix(0.51082541,0,0,0.51080648,-11.482784,-13.737454)"
   style="fill:#ff6766" /><path
   id="XMLID_83_"
   class="st6"
   d="m 595.16834,753.09983 c -11.50117,31.23966 -41.65288,53.46489 -76.77807,53.46489 -35.2806,0 -65.43231,-22.38065 -76.93348,-53.62031 14.60959,-1.55421 26.11076,-13.98791 26.11076,-29.06376 v -5.43974 h 99.46955 v 5.43974 c 0,15.69754 12.4337,28.5975 28.13124,29.21918 z"
   style="stroke-width:3.0426"
   transform="matrix(0.51082541,0,0,0.51080648,-11.482784,-13.737454)" /><path
   id="XMLID_188_"
   class="st16"
   d="m 584.5997,750.61309 c -10.41322,27.04329 -36.36856,45.07215 -66.20943,45.07215 -30.1517,0 -56.26246,-18.49512 -66.52026,-46.00467 -3.10842,1.70963 -6.68311,2.79758 -10.41322,3.26384 11.50117,31.23966 41.65288,53.62031 76.93348,53.62031 35.28061,0 65.2769,-22.22523 76.77807,-53.46489 -3.73011,-0.15542 -7.3048,-1.08795 -10.56864,-2.48674 z"
   style="stroke-width:3.0426"
   transform="matrix(0.51082541,0,0,0.51080648,-11.482784,-13.737454)" /><path
   id="XMLID_166_"
   class="st5"
   d="m 567.0371,718.28549 v 5.43974 c 0,13.52164 9.16985,25.02281 21.75897,28.28665 3.26384,0.93253 5.1289,4.50722 3.73011,7.61564 -13.2108,27.66497 -41.34204,46.78178 -73.98048,46.78178 -32.94929,0 -61.23595,-19.42765 -74.29133,-47.40346 -1.39879,-2.95301 0.15542,-6.52769 3.41927,-7.46022 11.65659,-3.88553 20.04933,-14.76501 20.04933,-27.82039 v -5.43974"
   transform="matrix(0.51082541,0,0,0.51080648,-11.482784,-13.737454)" /><path
   id="XMLID_170_"
   class="st5"
   d="m 438.50379,742.99746 c 8.39274,36.36855 40.87577,63.56726 79.88648,63.56726 v 0 c 39.01072,0 71.49375,-27.19871 79.88649,-63.56726"
   transform="matrix(0.51082541,0,0,0.51080648,-11.482784,-13.737454)" /><ellipse
   id="XMLID_161_"
   class="st10"
   cx="460.88446"
   cy="823.81647"
   rx="12.433695"
   ry="7.149374"
   style="stroke-width:3.0426"
   transform="matrix(0.51082541,0,0,0.51080648,-11.482784,-13.737454)" /><line
   id="XMLID_78_"
   class="st17"
   x1="460.88446"
   y1="823.81647"
   x2="460.88446"
   y2="904.79095"
   transform="matrix(0.51082541,0,0,0.51080648,-11.482784,-13.737454)" /><ellipse
   id="XMLID_77_"
   class="st10"
   cx="573.56482"
   cy="823.81647"
   rx="12.433695"
   ry="7.149374"
   style="stroke-width:3.0426"
   transform="matrix(0.51082541,0,0,0.51080648,-11.482784,-13.737454)" /><line
   id="XMLID_168_"
   class="st17"
   x1="573.56482"
   y1="823.81647"
   x2="573.56482"
   y2="883.03198"
   transform="matrix(0.51082541,0,0,0.51080648,-11.482784,-13.737454)" /><path
   id="XMLID_171_"
   class="st15"
   d="m 465.39165,926.23903 h -9.32527 c -5.906,0 -10.2578,-5.43974 -8.85901,-11.19033 l 4.04095,-18.02886 h 18.96139 l 4.04095,18.02886 c 1.39879,5.75059 -2.953,11.19033 -8.85901,11.19033 z"
   style="stroke-width:3.0426"
   transform="matrix(0.51082541,0,0,0.51080648,-11.482784,-13.737454)" /><path
   id="XMLID_164_"
   class="st5"
   d="m 465.39165,926.23903 h -9.32527 c -5.906,0 -10.2578,-5.43974 -8.85901,-11.19033 l 4.04095,-18.02886 h 18.96139 l 4.04095,18.02886 c 1.39879,5.75059 -2.953,11.19033 -8.85901,11.19033 z"
   transform="matrix(0.51082541,0,0,0.51080648,-11.482784,-13.737454)" /><path
   id="XMLID_174_"
   class="st15"
   d="m 578.22743,911.62944 h -9.32527 c -5.90601,0 -10.2578,-5.43975 -8.85901,-11.19033 l 4.04095,-18.02886 h 18.96139 l 4.04095,18.02886 c 1.39879,5.75058 -2.95301,11.19033 -8.85901,11.19033 z"
   style="stroke-width:3.0426"
   transform="matrix(0.51082541,0,0,0.51080648,-11.482784,-13.737454)" /><path
   id="XMLID_173_"
   class="st5"
   d="m 578.22743,911.62944 h -9.32527 c -5.90601,0 -10.2578,-5.43975 -8.85901,-11.19033 l 4.04095,-18.02886 h 18.96139 l 4.04095,18.02886 c 1.39879,5.75058 -2.95301,11.19033 -8.85901,11.19033 z"
   transform="matrix(0.51082541,0,0,0.51080648,-11.482784,-13.737454)" /><path
   id="XMLID_74_"
   class="st5"
   d="M 826.59047,956.23531"
   transform="matrix(0.51082541,0,0,0.51080648,-11.482784,-13.737454)" /><path
   id="XMLID_186_"
   class="st18"
   d="m 504.86863,746.72756 c 0,0 4.97348,0.46627 10.56864,6.21685 0,0 6.52769,-6.21685 12.12285,-6.21685"
   transform="matrix(0.51082541,0,0,0.51080648,-11.482784,-13.737454)" /><path
   id="XMLID_187_"
   class="st13"
   d="m 523.83002,274.86886 c 0,0 -3.41927,-19.58307 -37.92277,-30.30713"
   transform="matrix(0.51082541,0,0,0.51080648,-11.482784,-13.737454)" /><line
   id="XMLID_73_"
   class="st5"
   x1="379.1329"
   y1="897.0199"
   x2="379.1329"
   y2="956.23529"
   transform="matrix(0.51082541,0,0,0.51080648,-11.482784,-13.737454)" /><line
   id="XMLID_189_"
   class="st5"
   x1="651.89703"
   y1="897.0199"
   x2="651.89703"
   y2="956.23529"
   transform="matrix(0.51082541,0,0,0.51080648,-11.482784,-13.737454)" />















</svg>
