<?xml version="1.0" encoding="UTF-8" standalone="no"?>
<!-- Created with Inkscape (http://www.inkscape.org/) -->

<svg
   width="5in"
   height="5in"
   viewBox="0 0 127 127"
   version="1.1"
   id="svg5"
   inkscape:version="1.1.1 (3bf5ae0d25, 2021-09-20)"
   sodipodi:docname="404.svg"
   xmlns:inkscape="http://www.inkscape.org/namespaces/inkscape"
   xmlns:sodipodi="http://sodipodi.sourceforge.net/DTD/sodipodi-0.dtd"
   xmlns="http://www.w3.org/2000/svg"
   xmlns:svg="http://www.w3.org/2000/svg">
  <sodipodi:namedview
     id="namedview7"
     pagecolor="#ffffff"
     bordercolor="#666666"
     borderopacity="1.0"
     inkscape:pageshadow="2"
     inkscape:pageopacity="0.0"
     inkscape:pagecheckerboard="0"
     inkscape:document-units="mm"
     showgrid="false"
     height="5mm"
     units="in"
     inkscape:zoom="0.7071068"
     inkscape:cx="152.73506"
     inkscape:cy="286.37824"
     inkscape:window-width="1920"
     inkscape:window-height="1013"
     inkscape:window-x="0"
     inkscape:window-y="32"
     inkscape:window-maximized="1"
     inkscape:current-layer="g20569"
     inkscape:snap-object-midpoints="true"
     inkscape:snap-center="true"
     inkscape:snap-others="true"
     inkscape:snap-bbox="true"
     inkscape:bbox-paths="true"
     inkscape:bbox-nodes="true"
     inkscape:snap-bbox-edge-midpoints="true"
     inkscape:snap-bbox-midpoints="true"
     showguides="false">
    <inkscape:grid
       type="xygrid"
       id="grid32"
       spacingy="1.27"
       spacingx="1.27"
       dotted="false"
       empspacing="1"
       empcolor="#9f9f9f"
       empopacity="0.79215686"
       snapvisiblegridlinesonly="true"
       units="in"
       visible="true" />
  </sodipodi:namedview>
  <defs
     id="defs2">
    <inkscape:path-effect
       effect="fill_between_many"
       method="originald"
       linkedpaths="#path2269,0,1"
       id="path-effect2657" />
  </defs>
  <g
     inkscape:label="Capa 1"
     inkscape:groupmode="layer"
     id="layer1">
    <g
       id="g20569"
       transform="translate(-0.03050041,5.385191)">
      <g
         id="g1410"
         transform="translate(9.5250666,-7.282528)">
        <rect
           style="fill:#ffffff;fill-opacity:1;fill-rule:evenodd;stroke:#000000;stroke-width:2.58126;stroke-miterlimit:4;stroke-dasharray:none;stroke-opacity:1"
           id="rect61"
           width="105.36861"
           height="79.953407"
           x="1.3211305"
           y="25.420633"
           ry="15.738862"
           rx="13.827942" />
        <path
           style="fill:none;stroke:#000000;stroke-width:2.60125;stroke-linecap:butt;stroke-linejoin:miter;stroke-miterlimit:4;stroke-dasharray:none;stroke-opacity:1"
           d="M 1.5354531,45.720036 H 106.40135"
           id="path2001"
           sodipodi:nodetypes="cc" />
        <circle
           style="fill:#e6e09a;fill-opacity:1;stroke:#000000;stroke-width:2.74855;stroke-miterlimit:4;stroke-dasharray:none;stroke-opacity:1"
           id="path2105"
           cx="64.121826"
           cy="36.040886"
           r="4.9866605" />
        <circle
           style="fill:#ceffcf;fill-opacity:1;stroke:#000000;stroke-width:2.74855;stroke-miterlimit:4;stroke-dasharray:none;stroke-opacity:1"
           id="path2105-1"
           cx="94.041786"
           cy="36.040886"
           r="4.9866605" />
        <circle
           style="fill:#a5ddff;fill-opacity:1;stroke:#000000;stroke-width:2.74855;stroke-miterlimit:4;stroke-dasharray:none;stroke-opacity:1"
           id="path2105-1-4"
           cx="79.081795"
           cy="36.040886"
           r="4.9866605" />
        <path
           id="path2309-9"
           style="fill:none;stroke:#000000;stroke-width:3.92651;stroke-linecap:round;stroke-linejoin:miter;stroke-miterlimit:4;stroke-dasharray:none;stroke-opacity:1"
           d="M 44.189311,57.041271 26.735997,74.494583 m 0,-17.453313 17.453314,17.453314" />
        <path
           id="path2309-9-2"
           style="fill:none;stroke:#000000;stroke-width:3.92651;stroke-linecap:round;stroke-linejoin:miter;stroke-miterlimit:4;stroke-dasharray:none;stroke-opacity:1"
           d="M 84.082596,57.041271 66.629282,74.494583 m 0,-17.453313 17.453314,17.453314" />
        <path
           id="path14764"
           style="fill:#ff6766;fill-opacity:1;stroke:#000000;stroke-width:2.725;stroke-linecap:butt;stroke-linejoin:miter;stroke-miterlimit:4;stroke-dasharray:none;stroke-opacity:1"
           d="m 60.122781,87.357966 -3e-6,4.996855 c 5.6e-5,2.231556 -1.16588,4.293622 -3.058592,5.409397 -1.892663,1.115753 -4.224524,1.115753 -6.117187,0 -1.892708,-1.115774 -3.058645,-3.177841 -3.058593,-5.409397 v -4.996855"
           sodipodi:nodetypes="ccsscc" />
        <path
           id="path4165-9-3"
           style="fill:none;stroke:#000000;stroke-width:2.79667;stroke-linecap:butt;stroke-linejoin:miter;stroke-miterlimit:4;stroke-dasharray:none;stroke-opacity:1"
           d="m 39.045713,86.178999 h 29.91976 z m 14.959374,10e-4 v 7.479181 z"
           sodipodi:nodetypes="cccccc" />
        <path
           style="fill:#cccccc;fill-opacity:1;stroke-width:0.842714;stroke-linecap:butt;stroke-miterlimit:4;stroke-dasharray:none;paint-order:fill markers stroke"
           d="M 2.689738,41.45504 C 2.3969235,35.065329 6.6654061,27.796824 13.430205,27.057621 c 19.980557,-0.570263 39.972918,-0.07354 59.958449,-0.27162 7.425514,0.06946 14.89436,-0.150706 22.290599,0.368045 6.487047,1.694609 10.207967,8.862008 9.612087,15.247319 0.81888,2.845882 -2.55005,1.709757 -4.1681,1.905037 -32.84088,0 -65.681762,0 -98.5226453,0 0.029714,-0.950453 0.059427,-1.900912 0.089141,-2.851362 z m 64.129872,0.361668 c 4.894098,-1.919952 4.716733,-9.893497 -0.217443,-11.679807 -4.379383,-2.021958 -10.000879,2.432139 -8.705352,7.197783 0.612342,3.905862 5.43555,6.213982 8.922795,4.482024 z m 15.053066,-0.04538 c 4.426223,-1.893872 4.771383,-8.895035 0.525811,-11.187974 -4.321335,-2.847665 -10.755058,1.398245 -9.612503,6.515267 0.656758,4.023158 5.430112,6.598762 9.086692,4.672707 z m 14.780715,0.08891 c 4.562439,-1.790289 4.996959,-8.976847 0.676038,-11.297805 -4.18968,-2.703553 -10.398352,1.135647 -9.651939,6.112737 0.34124,4.156099 5.193629,7.001959 8.975901,5.185068 z"
           id="path20055" />
      </g>
    </g>
  </g>
</svg>
