<?xml version="1.0" encoding="UTF-8" standalone="no"?>
<svg
   version="1.1"
   width="5in"
   height="5in"
   id="svg834"
   viewBox="0 0 479.99998 479.99998"
   sodipodi:docname="email.svg"
   inkscape:version="1.1 (c68e22c387, 2021-05-23)"
   xmlns:inkscape="http://www.inkscape.org/namespaces/inkscape"
   xmlns:sodipodi="http://sodipodi.sourceforge.net/DTD/sodipodi-0.dtd"
   xmlns="http://www.w3.org/2000/svg"
   xmlns:svg="http://www.w3.org/2000/svg">
  <defs
     id="defs838" />
  <sodipodi:namedview
     id="namedview836"
     pagecolor="#ffffff"
     bordercolor="#666666"
     borderopacity="1.0"
     inkscape:pageshadow="2"
     inkscape:pageopacity="0.0"
     inkscape:pagecheckerboard="0"
     showgrid="false"
     units="in"
     inkscape:zoom="1.1615112"
     inkscape:cx="231.16437"
     inkscape:cy="243.21763"
     inkscape:window-width="1920"
     inkscape:window-height="986"
     inkscape:window-x="-11"
     inkscape:window-y="-11"
     inkscape:window-maximized="1"
     inkscape:current-layer="svg834"
     inkscape:document-units="in" />
  <path
     style="color:#000000;fill:#f7ffd8;stroke-width:2.22992;stroke-linecap:round;stroke-linejoin:round;-inkscape-stroke:none;paint-order:stroke fill markers"
     d="m -345.29492,-17.560547 c -15.93239,11.3610029 16.3078,23.7940873 24.00019,32.473396 41.58178,27.940004 85.93221,51.572873 126.45961,81.149428 26.35014,16.865943 50.5649,37.925473 79.76481,49.767803 23.712492,9.28803 43.667019,-12.84692 59.095263,-27.5672 C -18.382419,83.257276 20.813617,49.754923 64.281031,22.195801 74.484022,15.258349 84.52565,8.0886373 94.410156,0.70507812 100.95634,-13.108853 81.192735,-8.6586169 73.024059,-9.4521137 4.826463,-9.834824 -63.388839,-10.083951 -131.51714,-13.425337 c -65.16258,-1.594161 -130.416,0.821993 -195.52972,-2.158307 -6.08528,-0.625822 -12.15076,-1.479035 -18.24806,-1.976903 z m 459.2832,13.3710939 C 97.352021,4.3661412 83.156784,17.961168 67.065101,27.940256 43.410357,44.9871 20.290634,62.792726 -2.0507812,81.53125 c 0.6748066,9.462383 -11.7792638,5.383678 -17.7131598,14.910885 -23.427156,18.922885 -43.648993,41.537065 -67.151461,60.265155 -20.054418,10.80724 -39.171328,-8.00381 -55.918658,-16.85098 -18.94185,-10.97219 -35.762,-26.1487 -55.79485,-34.81529 -14.91246,9.97316 -24.84657,27.7224 -37.72118,40.81991 -27.74342,31.13342 -51.97326,65.05948 -74.7306,99.93184 -11.65683,7.22504 -14.48862,27.03871 4.14319,21.29707 61.18045,-5.18828 122.47492,-0.26455 183.68535,0.93998 82.06044,-0.45115 164.156874,0.0571 246.19356,-1.58046 19.1314,-6.53204 -5.87753,-28.35729 -11.82085,-38.15379 C 76.139261,184.61845 38.516504,143.08074 4.56902,98.582561 -6.1199602,84.393208 16.896922,111.1282 21.342207,115.44403 c 34.433695,37.88651 68.030623,76.59451 100.977363,115.74916 19.60506,6.03234 7.82647,-25.77889 9.52912,-38.08213 -3.12031,-56.19211 -8.59623,-112.478354 -5.46154,-168.784055 -1.1074,-9.696098 -1.62275,-24.72681837 -12.39887,-28.5164581 z m -463.07812,4.29296872 c -14.44408,6.40095758 -1.26978,29.90687538 -4.2172,42.91735738 5.23651,70.831387 4.52833,141.923177 8.72303,212.787717 8.5973,20.41757 26.00389,-11.53664 33.62207,-19.92269 29.58056,-47.67741 66.57836,-90.19713 106.12793,-129.82926 2.58389,-14.955247 -22.24152,-19.761273 -31.16868,-29.446982 C -273.37474,52.29835 -313.48665,31.69106 -346.44534,1.2089844 l -1.625,-0.79101565 -1.01953,-0.31445313 z"
     id="path12394"
     transform="matrix(0.86094736,0,0,0.86094736,333.6171,130.864)" />
  <path
     d="m 12.3483,10.4156 c -0.2806,0.1592 -0.8816,0.0483 -1.1988,0.0627 -0.4649,0.0212 -0.9287,0.0412 -1.394,0.0476 -0.8904,0.0124 -1.7819,0.0086 -2.6722,4e-4 C 6.1941,10.5181 5.309,10.4659 4.4209,10.4354 3.6083,10.4075 2.7838,10.5252 1.9758,10.5014 1.8676,9.5294 1.9043,8.5315 1.8628,7.5551 1.8164,6.4637 1.7611,5.3474 1.6663,4.2603 1.668,4.1109 1.44,4.1116 1.4347,4.2603 1.3952,5.3656 1.4711,6.4512 1.5033,7.5551 1.5335,8.5935 1.4759,9.6586 1.6106,10.689 c 0.0141,0.1083 0.0772,0.1862 0.193,0.1928 0.9057,0.0529 1.8318,-0.0898 2.7455,-0.0506 0.971,0.0414 1.9382,0.086 2.9103,0.0911 0.9356,0.0052 1.8731,0.0152 2.8084,-0.0103 0.4824,-0.0132 0.964,-0.0473 1.4466,-0.0547 0.3018,-0.0046 0.5694,0.0525 0.8349,-0.0979 0.223,-0.1263 0.0225,-0.4705 -0.201,-0.3438 z"
     style="fill:#231f20;fill-rule:evenodd"
     id="path824"
     transform="matrix(39.108435,0,0,39.108435,-35.233311,-54.007244)" />
  <path
     d="M 12.4349,5.7509 C 12.4406,5.3375 12.6166,4.7645 12.3043,4.4192 12.0005,4.0836 11.4043,4.2264 10.9996,4.2272 9.4348,4.2303 7.8754,4.2487 6.3115,4.1729 5.481,4.1329 4.6633,4.1491 3.8325,4.1754 3.102,4.1986 2.3094,4.0432 1.5925,4.1375 1.5022,4.1493 1.4491,4.1991 1.4384,4.2915 c -0.0409,0.3538 0.0293,0.72 0.048,1.0739 0.0021,0.0398 0.0624,0.0403 0.0621,0 C 1.5474,5.1691 1.5145,4.8305 1.6131,4.6632 1.756,4.4208 1.7694,4.4419 2.0423,4.4752 2.324,4.5096 2.608,4.5268 2.8916,4.5361 3.6459,4.5609 4.3997,4.5097 5.1539,4.5107 c 1.425,0.0021 2.8471,0.127 4.2738,0.1198 0.6691,-0.0034 1.3385,7e-4 2.0075,-0.0059 0.3872,-0.0039 0.5792,0.0375 0.6507,0.4564 0.0568,0.3326 -0.0292,0.7372 -0.0164,1.079 0.0543,1.4441 0.1553,2.8815 0.246,4.3232 0.0135,0.214 0.3435,0.2177 0.3362,0 -0.0525,-1.574 -0.2384,-3.1565 -0.2168,-4.7323 z"
     style="fill:#231f20;fill-rule:evenodd"
     id="path826"
     transform="matrix(39.108435,0,0,39.108435,-35.233311,-54.007244)" />
  <path
     d="m 11.6918,4.4344 c -0.6365,0.5903 -1.4674,1 -2.1365,1.5608 C 9.1932,6.2987 8.8331,6.6054 8.4734,6.9117 8.0955,7.2337 7.5368,8.0244 7.0037,7.8577 6.5448,7.7143 6.0111,7.2958 5.6151,7.032 5.2319,6.7767 4.8588,6.5069 4.4771,6.2493 3.5788,5.643 2.5106,5.1563 1.7263,4.3975 1.6122,4.2616 1.4219,4.4564 1.5323,4.5916 c 0.7373,0.903 2.0011,1.443 2.9398,2.111 0.4537,0.323 0.9025,0.657 1.3781,0.9481 C 6.2119,7.8723 6.7904,8.3553 7.2324,8.3661 7.5874,8.3747 7.839,8.067 8.0688,7.8369 8.4646,7.4403 8.8901,7.0893 9.3168,6.7261 9.8257,6.2927 10.3424,5.8867 10.8818,5.492 11.2297,5.2376 11.6545,5.0062 11.9525,4.6951 12.1174,4.5232 11.8658,4.2732 11.6918,4.4344 Z"
     style="fill:#231f20;fill-rule:evenodd"
     id="path828"
     transform="matrix(39.108435,0,0,39.108435,-35.233311,-54.007244)" />
  <path
     d="M 4.8934,6.952 C 4.8926,6.9506 4.8917,6.9493 4.8909,6.9478 4.2645,7.5196 3.7064,8.2032 3.1694,8.8587 2.7603,9.3584 2.4665,10.1077 1.9167,10.4716 1.7308,10.5947 1.8998,10.8919 2.093,10.7731 2.6276,10.4444 2.9098,9.8218 3.262,9.3252 3.808,8.5553 4.4631,7.8497 5.0694,7.1263 5.1784,6.9962 5.0032,6.8475 4.8934,6.952 Z"
     style="fill:#231f20;fill-rule:evenodd"
     id="path830"
     transform="matrix(39.108435,0,0,39.108435,-35.233311,-54.007244)" />
  <path
     d="M 12.5492,10.3318 C 12.3559,9.7938 11.8699,9.3576 11.5073,8.9291 10.8161,8.1128 10.1424,7.3264 9.3879,6.5648 9.3327,6.4922 9.1897,6.5763 9.2469,6.6688 c 0.5056,0.8197 1.2471,1.5313 1.8343,2.2976 0.3702,0.4829 0.872,0.9561 1.1458,1.5012 0.0885,0.1762 0.39,0.0533 0.3222,-0.1358 z"
     style="fill:#231f20;fill-rule:evenodd"
     id="path832"
     transform="matrix(39.108435,0,0,39.108435,-35.233311,-54.007244)" />
</svg>
