<?xml version="1.0" encoding="UTF-8" standalone="no"?>
<svg
   version="1.1"
   width="5in"
   height="5in"
   id="svg834"
   viewBox="0 0 479.99998 479.99998"
   sodipodi:docname="instagram.svg"
   inkscape:version="1.1 (c68e22c387, 2021-05-23)"
   xmlns:inkscape="http://www.inkscape.org/namespaces/inkscape"
   xmlns:sodipodi="http://sodipodi.sourceforge.net/DTD/sodipodi-0.dtd"
   xmlns:xlink="http://www.w3.org/1999/xlink"
   xmlns="http://www.w3.org/2000/svg"
   xmlns:svg="http://www.w3.org/2000/svg">
  <defs
     id="defs838">
    <linearGradient
       inkscape:collect="always"
       id="linearGradient12060">
      <stop
         style="stop-color:#cd8437;stop-opacity:1"
         offset="0"
         id="stop12054" />
      <stop
         style="stop-color:#c74f19;stop-opacity:1"
         offset="0.55315793"
         id="stop12056" />
      <stop
         style="stop-color:#b86290;stop-opacity:1"
         offset="1"
         id="stop12058" />
    </linearGradient>
    <linearGradient
       inkscape:collect="always"
       id="linearGradient5505">
      <stop
         style="stop-color:#edbe8b;stop-opacity:1"
         offset="0"
         id="stop5501" />
      <stop
         style="stop-color:#c74f19;stop-opacity:1"
         offset="0.55315793"
         id="stop5667" />
      <stop
         style="stop-color:#b86290;stop-opacity:1"
         offset="1"
         id="stop5503" />
    </linearGradient>
    <pattern
       id="EMFhbasepattern"
       patternUnits="userSpaceOnUse"
       width="6"
       height="6"
       x="0"
       y="0" />
    <linearGradient
       inkscape:collect="always"
       xlink:href="#linearGradient12060"
       id="linearGradient7039"
       x1="25.039259"
       y1="255.66763"
       x2="138.0235"
       y2="130.66763"
       gradientUnits="userSpaceOnUse" />
    <linearGradient
       inkscape:collect="always"
       xlink:href="#linearGradient5505"
       id="linearGradient8209"
       x1="-65.837433"
       y1="245.74086"
       x2="87.209587"
       y2="75.477409"
       gradientUnits="userSpaceOnUse" />
  </defs>
  <sodipodi:namedview
     id="namedview836"
     pagecolor="#ffffff"
     bordercolor="#666666"
     borderopacity="1.0"
     inkscape:pageshadow="2"
     inkscape:pageopacity="0.0"
     inkscape:pagecheckerboard="0"
     showgrid="false"
     units="in"
     inkscape:zoom="1.1615112"
     inkscape:cx="234.60816"
     inkscape:cy="229.44247"
     inkscape:window-width="1920"
     inkscape:window-height="986"
     inkscape:window-x="-11"
     inkscape:window-y="-11"
     inkscape:window-maximized="1"
     inkscape:current-layer="svg834"
     inkscape:document-units="in"
     inkscape:snap-global="false" />
  <path
     style="color:#000000;fill:url(#linearGradient7039);fill-opacity:1;stroke-width:2.22992;stroke-linecap:round;stroke-linejoin:round;-inkscape-stroke:none;paint-order:stroke fill markers"
     d="M 38.982422,-1.3847656 C 25.277863,-3.1092385 11.442491,4.2953641 6.1606089,17.22419 -3.3219757,36.990672 0.75362077,59.487066 -0.44926523,80.636001 -0.28087532,131.2799 -2.1174125,182.01063 0.94073109,232.59067 1.1583783,249.27701 11.850746,266.98541 29.540559,269.14759 c 27.620801,6.07193 56.171681,3.163 84.166471,2.20983 35.83455,-3.01129 72.06725,-0.90448 107.65884,-6.49042 17.2266,-2.66659 34.13989,-13.13098 39.5811,-30.45664 6.3184,-21.43006 3.73985,-44.22167 4.9689,-66.28517 0.23633,-28.24372 1.44545,-56.46545 2.88953,-84.653993 C 268.04228,60.724481 264.43454,37.209893 253.80603,16.839196 244.02047,-0.60892319 221.42923,0.60889002 204.19158,0.89604093 168.72313,3.799743 133.18269,-1.0681024 97.731805,1.0377379 83.388822,4.0413034 69.026929,1.5629173 54.761337,-0.44978818 49.519197,-0.99237916 44.254267,-1.3559899 38.982422,-1.3847656 Z M 209.76562,18.898438 c 13.34511,1.406585 22.75177,15.750087 16.14132,28.332059 -4.55764,12.784219 -28.42917,13.154413 -29.42593,-1.813541 -0.77083,-9.50967 3.51275,-23.383892 13.28461,-26.518518 z m -70.29492,43 c 27.64671,0.520718 53.91346,20.156961 61.06836,47.130862 8.32355,26.37865 8.39788,58.72952 -9.84372,81.09129 -14.5477,13.28748 -34.42295,19.62187 -53.60928,22.55567 -32.99835,3.01464 -67.575166,-20.06586 -74.662991,-52.95281 -1.515186,-20.79838 -3.038733,-43.37974 7.774197,-62.188294 6.85628,-15.207402 20.89368,-26.305077 37.144594,-29.801505 10.21329,-3.896665 21.26096,-5.338681 32.12884,-5.835213 z"
     id="path5462"
     transform="matrix(1.2175634,0,0,1.2175634,78.532841,74.57576)" />
  <path
     style="fill:#231f20;fill-opacity:1;fill-rule:nonzero;stroke:none"
     d="m 74.154331,55.937008 c -0.226772,6.840945 -0.453544,14.173228 -7.710237,16.743307 -5.5937,2.00315 -11.376377,1.965354 -17.19685,1.965354 -10.809449,0 -21.770079,2.00315 -32.541732,0.755906 C 13.190551,75.023622 9.4110236,74.494488 7.4456693,70.979528 5.896063,68.182677 5.9716535,63.344882 5.7826772,60.283465 5.4425197,54.500787 5.7448819,48.64252 5.7448819,42.897638 5.7070866,36.925984 5.5559055,30.992126 5.6692913,25.020472 5.7448819,19.766929 4.9133858,9.6377953 10.31811,6.3496063 14.362205,3.8929134 20.371654,6.0850394 24.907087,6.1984252 c 0.226771,0.1511811 0.491338,0.2645669 0.869291,0.2645669 1.889764,-0.075591 3.666142,-0.3779527 5.51811,-0.5669291 0.71811,-0.075591 1.474016,-0.1133858 2.192126,-0.1889764 0.680315,-0.037795 1.36063,-0.075591 2.040945,-0.037795 5.44252,0.264567 10.922835,0.5669292 16.40315,0.5291339 5.026771,0 12.925984,-1.4740158 17.385826,1.3984252 3.401575,2.2299213 5.291339,13.1149603 5.555906,16.7433063 0.302362,5.026772 -0.64252,10.582678 -0.71811,15.647245 -0.0378,5.329133 0.188976,10.620472 0,15.949606 z m 2.07874,-42.859843 C 75.212598,8.7685039 74.00315,5.3291339 69.656693,3.5527559 64.894488,1.6251969 59.262992,2.3055118 54.23622,2.3433071 47.697638,2.3811024 41.19685,1.9275591 34.658268,1.6629921 c -1.625197,-0.037795 -4.951181,-0.4535433 -6.614174,0.037795 -0.453543,0.1511811 -0.7937,0.415748 -1.133858,0.680315 -0.604724,0 -1.209449,0 -1.814173,-0.037795 C 20.749606,2.192126 16.138583,0.90708661 11.792126,1.7007874 3.9685039,3.0992126 2.3811024,12.018898 1.9653543,18.670866 1.1716535,32.012598 1.3984252,45.732283 1.8141732,59.111811 c 0.264567,8.352756 0.7181103,17.007874 9.8645668,19.388976 11.036221,2.872441 22.790551,0.113386 33.977953,0.07559 8.768504,-0.0378 19.351181,0.944882 26.910236,-4.535433 7.52126,-5.480315 5.555906,-20.333858 5.480315,-28.346457 -0.0378,-5.707086 -0.0378,-11.489764 0.302362,-17.19685 0.340158,-5.631496 -0.831496,-9.940158 -2.116535,-15.420472 z"
     id="path1011"
     transform="matrix(4.6585997,0,0,4.6585997,54.017162,50.744616)" />
  <path
     style="color:#000000;fill:url(#linearGradient8209);stroke-width:2.22992;stroke-linecap:round;stroke-linejoin:round;-inkscape-stroke:none;paint-order:stroke fill markers"
     d="M 59.53125,-6.7382812 C 46.051496,-5.4910886 33.436083,1.6043679 23.242944,10.245378 3.0582538,27.575959 -3.2220375,54.977803 -5.7209027,80.297144 -8.1561107,107.38375 -3.499597,137.1339 15.531743,157.76503 c 18.874211,20.7679 47.615597,30.74918 75.340883,28.8185 32.702714,-1.14467 66.571264,-18.38514 80.900694,-48.85955 14.08745,-29.7941 9.50864,-65.065764 -2.82094,-94.619515 C 160.55677,22.449514 142.7083,6.0050725 121.08153,0.18855294 101.93656,-5.8329591 81.70759,-5.2072408 61.916016,-6.0839844 c 1.602869,0.7918342 0.675626,-0.045554 -2.384766,-0.6542968 z"
     id="path8164"
     transform="matrix(0.86094736,0,0,0.86094736,165.30189,162.71905)" />
  <path
     style="fill:#ffffff;fill-opacity:1;fill-rule:nonzero;stroke:none"
     d="M 45.392126,56.201575 C 36.850394,58.96063 26.456693,55.294488 24.604724,45.618898 c -0.755905,-3.968504 -0.302362,-8.692914 0.869292,-12.548032 1.587401,-5.329134 4.87559,-7.59685 9.146456,-8.88189 0.226772,0.188977 0.491339,0.302363 0.793701,0.302363 8.730709,0.03779 15.987402,0.340157 19.048819,9.977952 3.023622,9.448819 0.944882,18.519685 -9.070866,21.732284 z M 59.414173,37.795276 c -1.096063,-6.08504 -3.51496,-11.565355 -8.95748,-14.702363 -5.44252,-3.137007 -9.373228,-2.948031 -15.420473,-1.662992 -0.377952,0.07559 -0.642519,0.302362 -0.831496,0.529134 -10.696063,1.398425 -14.966929,13.077165 -13.455118,23.92441 1.436221,10.469291 13.001575,17.461417 23.092914,14.966929 4.308661,-1.058268 9.864567,-2.910237 12.585826,-6.614174 3.212599,-4.384251 3.892914,-11.262992 2.985827,-16.440944 z"
     id="path1013"
     transform="matrix(4.6585997,0,0,4.6585997,54.017162,50.744616)" />
  <path
     id="path8549"
     style="fill:#b86290;fill-opacity:1;stroke:none;stroke-width:2.22992;stroke-linecap:round;stroke-linejoin:round;paint-order:stroke fill markers;stop-color:#000000"
     sodipodi:type="inkscape:offset"
     inkscape:radius="4.8087764"
     inkscape:original="M 14.048828 1.0644531 C 13.641307 0.94899719 12.976916 1.3276878 12.220703 2.25 C 10.580894 4.2499858 4.0753702 21.551873 2.8964844 27.048828 C 1.9952199 31.251279 2.0819166 32.477169 3.4316406 34.537109 C 5.3204369 37.419776 8.6865748 37.730813 13.128906 35.433594 C 19.380471 32.200784 20.838734 21.307708 16.423828 10.818359 C 15.00659 7.451152 14.06433 3.8638756 14.330078 2.8476562 C 14.606793 1.7894961 14.456349 1.1799091 14.048828 1.0644531 z "
     d="m 12.570312,-3.640625 c -0.769888,0.1921898 -1.385506,0.5373245 -1.861328,0.8359375 C 9.7573417,-2.2074616 9.1132593,-1.5444052 8.5019531,-0.79882812 7.7134946,0.1628118 7.4953275,0.71519799 7.0957031,1.515625 6.6960788,2.316052 6.2746648,3.2413314 5.8222656,4.2890625 4.9174673,6.3845247 3.894972,8.9597438 2.8847656,11.646484 c -2.02041277,5.373482 -3.9366228,10.884205 -4.6894531,14.394532 -0.4773649,2.225875 -0.8122367,3.931516 -0.671875,5.898437 0.1403617,1.966921 0.9980636,3.876162 1.88671875,5.232422 1.61865225,2.470375 4.52552645,4.272683 7.47070315,4.544922 2.9451767,0.272239 5.7170106,-0.594799 8.4570316,-2.011719 4.947753,-2.558583 7.473977,-7.759069 8.205078,-13.220703 C 24.27407,21.022741 23.367254,14.920861 20.855469,8.953125 20.235895,7.4810847 19.705752,5.9078397 19.396484,4.7304688 19.241851,4.1417833 19.143849,3.6433538 19.109375,3.3925781 19.074901,3.1418025 19.267162,2.9756073 18.982422,4.0644531 19.231929,3.1103349 19.428512,2.1380577 19.177734,0.74804688 18.926956,-0.64196391 17.549335,-2.9420559 15.359375,-3.5625 14.264471,-3.8727004 13.340201,-3.8328148 12.570312,-3.640625 Z"
     transform="matrix(0.60878172,0,0,0.60878172,329.35091,105.92802)" />
  <path
     style="color:#000000;fill:#fffbfc;-inkscape-stroke:none"
     d="m 61.379528,16.100787 c -0.345575,0.464539 -0.983133,0.756148 -1.560139,0.638481 -0.602404,-0.206984 -0.492722,-0.962629 -0.389554,-1.457238 0.228781,-1.036285 0.715849,-1.988064 1.0889,-2.974842 0.0175,-0.399889 0.740732,-0.556604 0.502919,-0.05266 -0.09211,0.621675 0.45886,1.058113 0.541399,1.644275 0.159358,0.722568 0.171248,1.533042 -0.183525,2.201985 z m 2.267716,-5.329133 C 63.28271,10.317756 62.591497,10.675504 62.272429,10.318209 61.656797,9.6156156 60.722342,9.1068141 59.766983,9.2886803 c -1.14449,0.1867573 -1.786825,1.2618527 -2.389557,2.1384517 -1.001891,1.565395 -1.696271,3.417952 -1.569661,5.299947 0.08357,1.453119 0.966728,2.858031 2.318061,3.44506 1.877925,0.82157 4.209467,0.392077 5.734533,-0.956489 1.052618,-0.957915 1.513302,-2.405702 1.626083,-3.789715 0.123485,-1.714616 -0.423694,-3.581497 -1.839198,-4.654281 z"
     id="path1015"
     transform="matrix(4.6585997,0,0,4.6585997,54.017162,50.744616)" />
</svg>
