<?xml version="1.0" encoding="UTF-8" standalone="no"?>
<!-- Created with Inkscape (http://www.inkscape.org/) -->

<svg
   width="5in"
   height="5in"
   viewBox="0 0 127 127"
   version="1.1"
   id="svg5"
   sodipodi:docname="timeline.svg"
   inkscape:version="1.1 (c68e22c387, 2021-05-23)"
   xmlns:inkscape="http://www.inkscape.org/namespaces/inkscape"
   xmlns:sodipodi="http://sodipodi.sourceforge.net/DTD/sodipodi-0.dtd"
   xmlns="http://www.w3.org/2000/svg"
   xmlns:svg="http://www.w3.org/2000/svg">
  <sodipodi:namedview
     id="namedview7"
     pagecolor="#ffffff"
     bordercolor="#666666"
     borderopacity="1.0"
     inkscape:pageshadow="2"
     inkscape:pageopacity="0.0"
     inkscape:pagecheckerboard="0"
     inkscape:document-units="mm"
     showgrid="false"
     inkscape:zoom="3.9257126"
     inkscape:cx="302.74758"
     inkscape:cy="114.5015"
     inkscape:window-width="1920"
     inkscape:window-height="986"
     inkscape:window-x="-11"
     inkscape:window-y="-11"
     inkscape:window-maximized="1"
     inkscape:current-layer="g1097"
     units="in" />
  <defs
     id="defs2" />
  <g
     inkscape:label="Capa 1"
     inkscape:groupmode="layer"
     id="layer1">
    <g
       id="g1097"
       transform="matrix(0.26458333,0,0,0.26458333,6.2865398,52.115592)">
      <g
         id="g3036"
         transform="matrix(1.2577197,0,0,1.2577197,-68.354662,32.28569)">
        <path
           d="m 331.7304,87.8848 h -18.7012 c -0.6389,0 -1.2292,-0.3407 -1.5491,-0.8949 l -9.3506,-16.1956 c -0.3199,-0.5534 -0.3199,-1.2354 0,-1.7888 l 9.3506,-16.1956 c 0.3199,-0.5542 0.9102,-0.8946 1.5491,-0.8946 h 18.7012 c 0.6386,0 1.2292,0.3404 1.5502,0.8946 l 9.3503,16.1956 c 0.3199,0.5534 0.3199,1.2354 0,1.7888 l -9.3503,16.1956 c -0.321,0.5542 -0.9116,0.8949 -1.5502,0.8949 z"
           style="fill:#fd8918;fill-rule:evenodd"
           id="path824"
           transform="translate(-26.109947,-195.17452)" />
        <path
           d="m 337.8846,60.7848 -30.4536,19.1919 4.0491,7.0132 c 0.3199,0.5542 0.9102,0.8949 1.5491,0.8949 h 18.7012 c 0.6386,0 1.2292,-0.3407 1.5502,-0.8949 l 9.3503,-16.1956 c 0.3199,-0.5534 0.3199,-1.2354 0,-1.7888 z"
           style="fill:#ed720f;fill-rule:evenodd"
           id="path826"
           transform="translate(-26.109947,-195.17452)" />
        <text
           x="309.40625"
           y="77.088303"
           id="text830"
           style="text-align:center;text-anchor:middle"
           transform="translate(-12.600804,-207.06257)"><tspan
             sodipodi:role="line"
             id="tspan28221"
             x="309.40625"
             y="77.088303"><tspan
               font-family="'Bad Comic'"
               font-size="8px"
               fill="#ffffff"
               id="tspan828"
               style="text-align:center;text-anchor:middle">2006-</tspan></tspan><tspan
             sodipodi:role="line"
             id="tspan28223"
             x="309.40625"
             y="92.088303"><tspan
               font-family="'Bad Comic'"
               font-size="8px"
               fill="#ffffff"
               id="tspan28225"
               style="text-align:center;text-anchor:middle">AHORA</tspan></tspan></text>
      </g>
      <g
         id="g13426"
         transform="matrix(1.2577197,0,0,1.2577197,-68.355833,-25.818657)">
        <path
           d="m 331.7304,313.3402 h -18.7012 c -0.6389,0 -1.2292,-0.341 -1.5491,-0.8941 l -9.3506,-16.1962 c -0.3199,-0.5531 -0.3199,-1.2354 0,-1.7884 l 9.3506,-16.1962 c 0.3199,-0.554 0.9102,-0.8941 1.5491,-0.8941 h 18.7012 c 0.6386,0 1.2292,0.3401 1.5502,0.8941 l 9.3503,16.1962 c 0.3199,0.553 0.3199,1.2353 0,1.7884 l -9.3503,16.1962 c -0.321,0.5531 -0.9116,0.8941 -1.5502,0.8941 z"
           style="fill:#dd3d24;fill-rule:evenodd"
           id="path832"
           transform="translate(-26.109947,-195.17452)" />
        <path
           d="m 337.8937,286.2405 -30.4537,19.1924 4.0492,7.0132 c 0.3199,0.5539 0.9101,0.8941 1.5491,0.8941 h 18.7011 c 0.6387,0 1.2293,-0.3402 1.55,-0.8941 l 9.3506,-16.1962 c 0.3199,-0.5531 0.3199,-1.2354 0,-1.7884 z"
           style="fill:#a82f24;fill-rule:evenodd"
           id="path834"
           transform="translate(-26.109947,-195.17452)" />
        <text
           x="309.61987"
           y="306.23599"
           id="text838"
           style="text-align:center;text-anchor:middle"
           transform="translate(-12.780926,-208.32342)"><tspan
             sodipodi:role="line"
             id="tspan30286"
             x="309.61987"
             y="306.23599"><tspan
               font-family="'Bad Comic'"
               font-size="10px"
               fill="#ffffff"
               id="tspan836"
               style="text-align:center;text-anchor:middle">1999-</tspan></tspan><tspan
             sodipodi:role="line"
             id="tspan30288"
             x="309.61987"
             y="321.23599"><tspan
               font-family="'Bad Comic'"
               font-size="10px"
               fill="#ffffff"
               id="tspan30290"
               style="text-align:center;text-anchor:middle">2003</tspan></tspan></text>
      </g>
      <g
         id="g13548"
         transform="matrix(1.2577197,0,0,1.2577197,-50.120783,3.2468473)">
        <path
           d="m 178.6463,199.6663 -9.3506,-16.1956 c -0.3199,-0.5537 -0.3199,-1.2354 0,-1.7891 l 9.3506,-16.1956 c 0.3207,-0.5539 0.9113,-0.8946 1.5499,-0.8946 h 18.7012 c 0.6389,0 1.2292,0.3407 1.5491,0.8946 l 9.3506,16.1956 c 0.3199,0.5537 0.3199,1.2354 0,1.7891 l -9.3506,16.1956 c -0.3199,0.5539 -0.9102,0.8946 -1.5491,0.8946 h -18.7012 c -0.6386,0 -1.2292,-0.3407 -1.5499,-0.8946 z"
           style="fill:#3fc3e1;fill-rule:evenodd"
           id="path840"
           transform="translate(-26.109947,-195.17452)" />
        <path
           d="m 205.0508,173.4609 -30.4537,19.1922 4.0492,7.0132 c 0.3199,0.5539 0.9101,0.8946 1.5491,0.8946 h 18.7011 c 0.6387,0 1.2292,-0.3407 1.55,-0.8946 l 9.3506,-16.1956 c 0.3199,-0.5537 0.3199,-1.2354 0,-1.7891 z"
           style="fill:#41afdf;fill-rule:evenodd"
           id="path842"
           transform="translate(-26.109947,-195.17452)" />
        <text
           x="175.4379"
           y="193.4809"
           id="text846"
           transform="matrix(0.89497457,0,0,0.89497457,7.6937576,-188.39006)"
           style="text-align:center;text-anchor:middle"><tspan
             sodipodi:role="line"
             id="tspan17311"
             x="175.4379"
             y="193.4809"><tspan
               font-family="'Bad Comic'"
               font-size="10px"
               fill="#ffffff"
               id="tspan844"
               style="text-align:center;text-anchor:middle">2004-</tspan></tspan><tspan
             sodipodi:role="line"
             id="tspan17313"
             x="175.4379"
             y="208.4809"><tspan
               font-family="'Bad Comic'"
               font-size="10px"
               fill="#ffffff"
               id="tspan17315"
               style="text-align:center;text-anchor:middle">2005</tspan></tspan></text>
      </g>
      <g
         id="g13417"
         transform="matrix(1.2577197,0,0,1.2577197,-50.121311,-54.753008)">
        <path
           d="m 178.6463,424.7162 -9.3506,-16.1953 c -0.3199,-0.554 -0.3199,-1.2351 0,-1.7894 l 9.3506,-16.195 c 0.3207,-0.5542 0.9113,-0.8952 1.5499,-0.8952 h 18.7012 c 0.6389,0 1.2292,0.341 1.5491,0.8952 l 9.3506,16.195 c 0.3199,0.5543 0.3199,1.2354 0,1.7894 l -9.3506,16.1953 c -0.3199,0.5551 -0.9102,0.8952 -1.5491,0.8952 h -18.7012 c -0.6386,0 -1.2292,-0.3401 -1.5499,-0.8952 z"
           style="fill:#7ea30f;fill-rule:evenodd"
           id="path848"
           transform="translate(-26.109947,-195.17452)" />
        <path
           d="m 205.0549,398.5114 -30.4537,19.1925 4.0492,7.0131 c 0.3199,0.5543 0.9101,0.8944 1.5491,0.8944 h 18.7011 c 0.6387,0 1.229,-0.3401 1.55,-0.8944 l 9.3506,-16.1961 c 0.3199,-0.5531 0.3199,-1.2351 0,-1.7882 z"
           style="fill:#759013;fill-rule:evenodd"
           id="path850"
           transform="translate(-26.109947,-195.17452)" />
        <text
           x="163.2506"
           y="411.65421"
           id="text854"
           transform="translate(-15.156521,-195.42925)"><tspan
             font-family="'Bad Comic'"
             font-size="12px"
             fill="#ffffff"
             id="tspan852">1976</tspan></text>
      </g>
      <path
         d="m 255.3528,457.7937 v -3.0671"
         style="fill:none;stroke:#2f363f;stroke-width:1.2365;stroke-linecap:round;stroke-linejoin:round;stroke-dasharray:none"
         id="path856"
         transform="translate(-26.109947,-195.17452)" />
      <path
         d="M 255.3528,448.643 V 25.818"
         style="fill:none;stroke:#2f363f;stroke-width:1.23591;stroke-linecap:round;stroke-linejoin:round;stroke-miterlimit:4;stroke-dasharray:4.94362, 9.88724;stroke-dashoffset:0.247181"
         id="path858"
         transform="translate(-26.109947,-195.17452)" />
      <path
         d="M 255.3528,22.7397 V 19.6732"
         style="fill:none;stroke:#2f363f;stroke-width:1.2365;stroke-linecap:round;stroke-linejoin:round;stroke-dasharray:none"
         id="path860"
         transform="translate(-26.109947,-195.17452)" />
      <path
         d="m 212.6683,407.5641 h 42.6845"
         style="fill:none;stroke:#2f363f;stroke-width:1.2365;stroke-linecap:round;stroke-linejoin:round;stroke-miterlimit:4;stroke-dasharray:4.946, 4.946;stroke-dashoffset:0"
         id="path862"
         transform="translate(-26.109947,-195.17452)" />
      <path
         d="m 255.3528,295.2184 h 43.4473"
         style="fill:none;stroke:#2f363f;stroke-width:1.2365;stroke-linecap:round;stroke-linejoin:round;stroke-miterlimit:4;stroke-dasharray:4.946, 4.946;stroke-dashoffset:0"
         id="path864"
         transform="translate(-26.109947,-195.17452)" />
      <path
         d="m 212.6683,182.2464 h 42.6845"
         style="fill:none;stroke:#2f363f;stroke-width:1.2365;stroke-linecap:round;stroke-linejoin:round;stroke-miterlimit:4;stroke-dasharray:4.946, 4.946;stroke-dashoffset:0"
         id="path866"
         transform="translate(-26.109947,-195.17452)" />
      <path
         d="m 255.3528,69.8996 h 43.4473"
         style="fill:none;stroke:#2f363f;stroke-width:1.2365;stroke-linecap:round;stroke-linejoin:round;stroke-miterlimit:4;stroke-dasharray:4.946, 4.946;stroke-dashoffset:0"
         id="path868"
         transform="translate(-26.109947,-195.17452)" />
      <path
         d="m 255.3528,452.7978 c 2.1716,0 3.9328,1.7603 3.9328,3.9323 0,2.1719 -1.7612,3.9339 -3.9328,3.9339 -2.1719,0 -3.9328,-1.762 -3.9328,-3.9339 0,-2.172 1.7609,-3.9323 3.9328,-3.9323 z"
         style="fill:#2f363f;fill-rule:evenodd"
         id="path870"
         transform="translate(-26.109947,-195.17452)" />
      <path
         d="m 255.3528,350.6716 c 2.1716,0 3.9328,1.7624 3.9328,3.9343 0,2.1716 -1.7612,3.932 -3.9328,3.932 -2.1719,0 -3.9328,-1.7604 -3.9328,-3.932 0,-2.1719 1.7609,-3.9343 3.9328,-3.9343 z"
         style="fill:#2f363f;fill-rule:evenodd"
         id="path872"
         transform="translate(-26.109947,-195.17452)" />
      <path
         d="m 255.3528,236.1473 c 2.1716,0 3.9328,1.7603 3.9328,3.9317 0,2.1739 -1.7612,3.9331 -3.9328,3.9331 -2.1719,0 -3.9328,-1.7592 -3.9328,-3.9331 0,-2.1714 1.7609,-3.9317 3.9328,-3.9317 z"
         style="fill:#2f363f;fill-rule:evenodd"
         id="path874"
         transform="translate(-26.109947,-195.17452)" />
      <path
         d="m 255.3528,121.6207 c 2.1716,0 3.9328,1.76 3.9328,3.9319 0,2.1731 -1.7612,3.934 -3.9328,3.934 -2.1719,0 -3.9328,-1.7609 -3.9328,-3.934 0,-2.1719 1.7609,-3.9319 3.9328,-3.9319 z"
         style="fill:#2f363f;fill-rule:evenodd"
         id="path876"
         transform="translate(-26.109947,-195.17452)" />
      <path
         d="m 255.3528,15.7404 c 2.1716,0 3.9328,1.7609 3.9328,3.9328 0,2.1728 -1.7612,3.9331 -3.9328,3.9331 -2.1719,0 -3.9328,-1.7603 -3.9328,-3.9331 0,-2.1719 1.7609,-3.9328 3.9328,-3.9328 z"
         style="fill:#2f363f;fill-rule:evenodd"
         id="path878"
         transform="translate(-26.109947,-195.17452)" />
      <path
         d="m 247.4848,407.5641 c 0,-4.3456 3.5224,-7.868 7.868,-7.868 4.3447,0 7.8677,3.5224 7.8677,7.868 0,4.3459 -3.523,7.868 -7.8677,7.868 -4.3456,0 -7.868,-3.5221 -7.868,-7.868 z"
         style="fill:#7ea30f;fill-rule:evenodd"
         id="path880"
         transform="translate(-26.109947,-195.17452)" />
      <path
         d="m 251.0485,407.5641 c 0,-2.3776 1.9276,-4.3034 4.3043,-4.3034 2.3776,0 4.3043,1.9258 4.3043,4.3034 0,2.3778 -1.9267,4.3054 -4.3043,4.3054 -2.3767,0 -4.3043,-1.9276 -4.3043,-4.3054 z"
         style="fill:#759013;fill-rule:evenodd"
         id="path882"
         transform="translate(-26.109947,-195.17452)" />
      <path
         d="m 247.4848,295.168 c 0,-4.3458 3.5233,-7.8679 7.868,-7.8679 4.3456,0 7.8689,3.5221 7.8689,7.8679 0,4.3459 -3.5233,7.868 -7.8689,7.868 -4.3447,0 -7.868,-3.5221 -7.868,-7.868 z"
         style="fill:#dd3d24;fill-rule:evenodd"
         id="path884"
         transform="translate(-26.109947,-195.17452)" />
      <path
         d="m 251.0485,295.168 c 0,-2.3778 1.9276,-4.3054 4.3043,-4.3054 2.3776,0 4.3043,1.9276 4.3043,4.3054 0,2.3779 -1.9267,4.3034 -4.3043,4.3034 -2.3767,0 -4.3043,-1.9255 -4.3043,-4.3034 z"
         style="fill:#a82f24;fill-opacity:1;fill-rule:evenodd"
         id="path886"
         transform="translate(-26.109947,-195.17452)" />
      <path
         d="m 247.4848,182.7723 c 0,-4.3447 3.5233,-7.868 7.868,-7.868 4.3456,0 7.8689,3.5233 7.8689,7.868 0,4.3456 -3.5233,7.868 -7.8689,7.868 -4.3447,0 -7.868,-3.5224 -7.868,-7.868 z"
         style="fill:#3fc3e1;fill-rule:evenodd"
         id="path888"
         transform="translate(-26.109947,-195.17452)" />
      <path
         d="m 251.0485,182.7723 c 0,-2.377 1.9276,-4.3046 4.3043,-4.3046 2.3776,0 4.3043,1.9276 4.3043,4.3046 0,2.3767 -1.9267,4.3043 -4.3043,4.3043 -2.3767,0 -4.3043,-1.9276 -4.3043,-4.3043 z"
         style="fill:#41afdf;fill-rule:evenodd"
         id="path890"
         transform="translate(-26.109947,-195.17452)" />
      <path
         d="m 247.4848,70.3759 c 0,-4.3455 3.5224,-7.8679 7.868,-7.8679 4.3447,0 7.8677,3.5224 7.8677,7.8679 0,4.3459 -3.523,7.868 -7.8677,7.868 -4.3456,0 -7.868,-3.5221 -7.868,-7.868 z"
         style="fill:#fd8918;fill-rule:evenodd"
         id="path892"
         transform="translate(-26.109947,-195.17452)" />
      <path
         d="m 251.0485,70.3759 c 0,-2.3766 1.9276,-4.3042 4.3043,-4.3042 2.3776,0 4.3043,1.9276 4.3043,4.3042 0,2.3767 -1.9267,4.3043 -4.3043,4.3043 -2.3767,0 -4.3043,-1.9276 -4.3043,-4.3043 z"
         style="fill:#ed720f;fill-rule:evenodd"
         id="path894"
         transform="translate(-26.109947,-195.17452)" />
      <path
         d="m 278.2349,401.4746 v 13.1642 l -10.0832,-6.582 z"
         style="fill:#d3dfef;fill-rule:evenodd"
         id="path896"
         transform="translate(-26.109947,-195.17452)" />
      <path
         d="m 220.8512,95.5882 h -25.4589 c -0.8698,0 -1.6742,-0.4643 -2.1092,-1.2181 L 180.5536,72.3223 c -0.4359,-0.7538 -0.4359,-1.6818 0,-2.4359 l 12.7295,-22.0475 c 0.435,-0.754 1.2394,-1.2184 2.1092,-1.2184 h 25.4589 c 0.8701,0 1.6745,0.4644 2.1092,1.2184 l 12.7295,22.0475 c 0.435,0.7541 0.435,1.6821 0,2.4359 l -12.7295,22.0478 c -0.4347,0.7538 -1.2391,1.2181 -2.1092,1.2181 z"
         style="fill:#d3dfef;fill-rule:evenodd"
         id="path898"
         transform="translate(-26.109947,-195.17452)" />
      <path
         d="m 231.0174,64.1262 v 13.1636 l 10.0832,-6.5814 z"
         style="fill:#d3dfef;fill-rule:evenodd"
         id="path900"
         transform="translate(-26.109947,-195.17452)" />
      <path
         d="m 220.8512,320.7995 h -25.4589 c -0.8698,0 -1.6742,-0.4643 -2.1092,-1.219 l -12.7295,-22.0478 c -0.4359,-0.7529 -0.4359,-1.6815 0,-2.4353 l 12.7295,-22.0478 c 0.435,-0.7537 1.2394,-1.2181 2.1092,-1.2181 h 25.4589 c 0.8701,0 1.6745,0.4644 2.1092,1.2181 l 12.7295,22.0478 c 0.435,0.7538 0.435,1.6824 0,2.4353 l -12.7295,22.0478 c -0.4347,0.7547 -1.2391,1.219 -2.1092,1.219 z"
         style="fill:#d3dfef;fill-rule:evenodd"
         id="path902"
         transform="translate(-26.109947,-195.17452)" />
      <path
         d="m 231.0174,289.3378 v 13.1624 l 10.0832,-6.5805 z"
         style="fill:#d3dfef;fill-rule:evenodd"
         id="path904"
         transform="translate(-26.109947,-195.17452)" />
      <path
         d="m 278.2349,176.7824 v 13.1633 l -10.0832,-6.5811 z"
         style="fill:#d3dfef;fill-rule:evenodd"
         id="path906"
         transform="translate(-26.109947,-195.17452)" />
      <path
         d="m 314.6398,207.848 h -25.4586 c -0.87,0 -1.6745,-0.4643 -2.1095,-1.2181 l -12.7295,-22.0478 c -0.4359,-0.7537 -0.4359,-1.6818 0,-2.4356 l 12.7295,-22.0478 c 0.435,-0.754 1.2395,-1.218 2.1095,-1.218 h 25.4586 c 0.8712,0 1.6745,0.464 2.1095,1.218 l 12.7295,22.0478 c 0.4359,0.7538 0.4359,1.6819 0,2.4356 l -12.7295,22.0478 c -0.435,0.7538 -1.2383,1.2181 -2.1095,1.2181 z"
         style="fill:#d3dfef;fill-rule:evenodd"
         id="path908"
         transform="translate(-26.109947,-195.17452)" />
      <g
         id="Layer1000"
         transform="translate(-26.109947,-195.17452)">
        <path
           d="m 194.5297,83.3636 h 28.5537 V 71.7608 h -28.5537 z"
           style="fill:#484646;fill-rule:evenodd"
           id="path910" />
        <path
           d="m 223.0798,83.3636 c 0,1.8191 -6.389,3.2921 -14.2725,3.2921 -7.8887,0 -14.2776,-1.473 -14.2776,-3.2921 0,-1.8176 6.3889,-3.2906 14.2776,-3.2906 7.8835,0 14.2725,1.473 14.2725,3.2906 z"
           style="fill:#484646;fill-rule:evenodd"
           id="path912" />
        <path
           d="m 223.0798,67.4743 h -28.5501 v 9.4772 c 0,1.8191 6.3941,4.3952 14.2776,4.3952 7.8835,0 14.2725,-2.5761 14.2725,-4.3952 z"
           style="fill:#30302f;fill-rule:evenodd"
           id="path914" />
        <path
           d="M 225.3858,71.0478 V 84.76 h -2.306 c 0.2363,-2.3584 1.3405,-3.9808 1.3405,-3.9808 v -9.7314 z"
           style="fill:#f9da01;fill-rule:evenodd"
           id="path916" />
        <path
           d="m 227.6867,84.76 h -2.3009 V 71.0478 h 0.9604 v 9.7314 c 0,0 1.1042,1.6224 1.3405,3.9808 z"
           style="fill:#f6b518;fill-rule:evenodd"
           id="path918" />
        <path
           d="m 208.8073,61.4012 v 16.503 l -26.162,-8.2528 z"
           style="fill:#565555;fill-rule:evenodd"
           id="path920" />
        <path
           d="m 234.9642,69.6514 -26.1569,8.2528 v -16.503 z"
           style="fill:#484646;fill-rule:evenodd"
           id="path922" />
        <path
           d="m 212.3459,68.5641 c 0,0.6014 -1.5459,1.0883 -3.4461,1.0883 -1.9054,0 -3.4513,-0.4869 -3.4513,-1.0883 0,-2.252 6.8974,-2.2788 6.8974,0 z"
           style="fill:#f6b518;fill-rule:evenodd"
           id="path924" />
        <path
           d="m 224.4203,72.9773 -14.935,-3.7486 1.4329,-0.7211 15.428,3.8627 z"
           style="fill:#f6b518;fill-rule:evenodd"
           id="path926" />
      </g>
      <g
         id="Layer1001"
         transform="matrix(0.23584695,0,0,0.23584695,175.51019,-104.90137)"
         style="fill:#a15252;fill-opacity:1">
        <path
           d="m 368.3809,383.0893 c 6.2236,0 11.2689,5.0453 11.2689,11.2689 0,6.2237 -5.0453,11.2689 -11.2689,11.2689 -6.2237,0 -11.269,-5.0452 -11.269,-11.2689 0,-6.2236 5.0453,-11.2689 11.269,-11.2689 z m 0,6.6274 c 2.5634,0 4.6414,2.0781 4.6414,4.6415 0,2.5634 -2.078,4.6415 -4.6414,4.6415 -2.5634,0 -4.6415,-2.0781 -4.6415,-4.6415 0,-2.5634 2.0781,-4.6415 4.6415,-4.6415 z"
           style="fill:#a15252;fill-opacity:1;fill-rule:evenodd"
           id="path929"
           transform="matrix(1.1810299,0,0,1.1810299,-74.185748,-69.88359)" />
        <path
           d="m 422.4577,436.1632 c 6.2236,0 11.2689,5.0453 11.2689,11.2689 0,6.2237 -5.0453,11.269 -11.2689,11.269 -6.2237,0 -11.269,-5.0453 -11.269,-11.269 0,-6.2236 5.0453,-11.2689 11.269,-11.2689 z m 0,6.6275 c 2.5634,0 4.6415,2.078 4.6415,4.6414 0,2.5634 -2.0781,4.6415 -4.6415,4.6415 -2.5634,0 -4.6415,-2.0781 -4.6415,-4.6415 0,-2.5634 2.0781,-4.6414 4.6415,-4.6414 z"
           style="fill:#a15252;fill-opacity:1;fill-rule:evenodd"
           id="path931"
           transform="matrix(1.1810299,0,0,1.1810299,-74.185748,-69.88359)" />
        <path
           d="m 397.2567,357.3038 c 6.2238,0 11.2692,5.0454 11.2692,11.2692 0,6.2234 -5.0454,11.2688 -11.2692,11.2688 -6.2234,0 -11.2688,-5.0454 -11.2688,-11.2688 0,-6.2238 5.0454,-11.2692 11.2688,-11.2692 z m 6.6028,13.1352 -5.7603,1.4593 -5.7597,1.4593 1.616,-5.7181 1.6163,-5.718 4.1437,4.2587 z"
           style="fill:#a15252;fill-opacity:1;fill-rule:evenodd"
           id="path933"
           transform="matrix(1.1810299,0,0,1.1810299,-74.185748,-69.88359)" />
        <path
           d="m 399.4091,410.2575 c 5.4158,3.0667 7.3202,9.9431 4.2535,15.3589 -3.0665,5.4155 -9.9429,7.3199 -15.3587,4.2532 -5.4155,-3.0665 -7.3199,-9.9429 -4.2534,-15.3584 3.0667,-5.4158 9.9431,-7.3202 15.3586,-4.2537 z m -0.7265,14.6834 -5.7316,-1.5685 -5.731,-1.5681 4.2237,-4.1795 4.224,-4.1793 1.5073,5.7476 z"
           style="fill:#a15252;fill-opacity:1;fill-rule:evenodd"
           id="path935"
           transform="matrix(1.1810299,0,0,1.1810299,-74.185748,-69.88359)" />
        <path
           d="m 373.4868,389.3751 17.0636,-16.6528"
           style="fill:#a15252;fill-opacity:1;fill-rule:evenodd;stroke:#a15252;stroke-width:7.9999;stroke-linecap:butt;stroke-linejoin:miter;stroke-dasharray:none;stroke-opacity:1"
           id="path937"
           transform="matrix(1.1810299,0,0,1.1810299,-74.185748,-69.88359)" />
        <path
           d="m 400.1424,362.9113 16.924,-16.5132"
           style="fill:#a15252;fill-opacity:1;fill-rule:evenodd;stroke:#a15252;stroke-width:7.9999;stroke-linecap:butt;stroke-linejoin:miter;stroke-dasharray:none;stroke-opacity:1"
           id="path939"
           transform="matrix(1.1810299,0,0,1.1810299,-74.185748,-69.88359)" />
        <path
           d="m 373.2992,398.7106 17.0635,16.6527"
           style="fill:#a15252;fill-opacity:1;fill-rule:evenodd;stroke:#1b1918;stroke-width:7.9999;stroke-linecap:butt;stroke-linejoin:miter;stroke-dasharray:none"
           id="path941"
           transform="matrix(1.1810299,0,0,1.1810299,-74.185748,-69.88359)" />
        <path
           d="m 399.9548,425.1743 16.9239,16.5132"
           style="fill:#a15252;fill-opacity:1;fill-rule:evenodd;stroke:#1b1918;stroke-width:7.9999;stroke-linecap:butt;stroke-linejoin:miter;stroke-dasharray:none"
           id="path943"
           transform="matrix(1.1810299,0,0,1.1810299,-74.185748,-69.88359)" />
        <path
           d="m 373.2992,398.7106 17.0635,16.6527"
           style="fill:none;fill-opacity:1;fill-rule:evenodd;stroke:#a15252;stroke-width:7.9999;stroke-linecap:butt;stroke-linejoin:miter;stroke-dasharray:none;stroke-opacity:1"
           id="path945"
           transform="matrix(1.1810299,0,0,1.1810299,-74.185748,-69.88359)" />
        <path
           d="m 399.9548,425.1743 16.9239,16.5132"
           style="fill:none;fill-opacity:1;fill-rule:evenodd;stroke:#a15252;stroke-width:7.9999;stroke-linecap:butt;stroke-linejoin:miter;stroke-dasharray:none;stroke-opacity:1"
           id="path947"
           transform="matrix(1.1810299,0,0,1.1810299,-74.185748,-69.88359)" />
        <path
           d="m 422.6499,330.1267 c 6.2236,0 11.2689,5.0453 11.2689,11.269 0,6.2236 -5.0453,11.2689 -11.2689,11.2689 -6.2237,0 -11.269,-5.0453 -11.269,-11.2689 0,-6.2237 5.0453,-11.269 11.269,-11.269 z m 0,6.6275 c 2.5634,0 4.6414,2.0781 4.6414,4.6415 0,2.5634 -2.078,4.6415 -4.6414,4.6415 -2.5634,0 -4.6415,-2.0781 -4.6415,-4.6415 0,-2.5634 2.0781,-4.6415 4.6415,-4.6415 z"
           style="fill:#a15252;fill-opacity:1;fill-rule:evenodd"
           id="path949"
           transform="matrix(1.1810299,0,0,1.1810299,-74.185748,-69.88359)" />
        <path
           d="M 446.5974,362.5068 429.6735,345.9936"
           style="fill:#a15252;fill-opacity:1;fill-rule:evenodd;stroke:#a15252;stroke-width:7.9999;stroke-linecap:butt;stroke-linejoin:miter;stroke-dasharray:none;stroke-opacity:1"
           id="path951"
           transform="matrix(1.1810299,0,0,1.1810299,-74.185748,-69.88359)" />
        <path
           d="m 478.359,382.6848 c -6.2237,0 -11.269,5.0452 -11.269,11.2689 0,6.2237 5.0453,11.2689 11.269,11.2689 6.2236,0 11.2689,-5.0452 11.2689,-11.2689 0,-6.2237 -5.0453,-11.2689 -11.2689,-11.2689 z m 0,6.6274 c -2.5634,0 -4.6415,2.0781 -4.6415,4.6415 0,2.5634 2.0781,4.6415 4.6415,4.6415 2.5634,0 4.6415,-2.0781 4.6415,-4.6415 0,-2.5634 -2.0781,-4.6415 -4.6415,-4.6415 z"
           style="fill:#a15252;fill-opacity:1;fill-rule:evenodd"
           id="path953"
           transform="matrix(1.1810299,0,0,1.1810299,-74.185748,-69.88359)" />
        <path
           d="m 449.4831,356.8993 c -6.2237,0 -11.2691,5.0454 -11.2691,11.2692 0,6.2234 5.0454,11.2688 11.2691,11.2688 6.2235,0 11.2689,-5.0454 11.2689,-11.2688 0,-6.2238 -5.0454,-11.2692 -11.2689,-11.2692 z m -6.6027,13.1352 5.7602,1.4593 5.7598,1.4593 -1.6161,-5.7181 -1.6163,-5.718 -4.1437,4.2587 z"
           style="fill:#a15252;fill-opacity:1;fill-rule:evenodd"
           id="path955"
           transform="matrix(1.1810299,0,0,1.1810299,-74.185748,-69.88359)" />
        <path
           d="m 447.3307,409.853 c -5.4158,3.0667 -7.3201,9.9431 -4.2535,15.3589 3.0665,5.4155 9.9429,7.3199 15.3587,4.2532 5.4156,-3.0665 7.3199,-9.9429 4.2534,-15.3584 -3.0666,-5.4158 -9.943,-7.3202 -15.3586,-4.2537 z m 0.7266,14.6834 5.7315,-1.5685 5.731,-1.5681 -4.2237,-4.1795 -4.2239,-4.1793 -1.5074,5.7476 z"
           style="fill:#a15252;fill-opacity:1;fill-rule:evenodd"
           id="path957"
           transform="matrix(1.1810299,0,0,1.1810299,-74.185748,-69.88359)" />
        <path
           d="M 473.253,388.9706 456.1895,372.3178"
           style="fill:#a15252;fill-opacity:1;fill-rule:evenodd;stroke:#a15252;stroke-width:7.9999;stroke-linecap:butt;stroke-linejoin:miter;stroke-dasharray:none;stroke-opacity:1"
           id="path959"
           transform="matrix(1.1810299,0,0,1.1810299,-74.185748,-69.88359)" />
        <path
           d="m 473.4407,398.3061 -17.0636,16.6527"
           style="fill:#a15252;fill-opacity:1;fill-rule:evenodd;stroke:#a15252;stroke-width:7.9999;stroke-linecap:butt;stroke-linejoin:miter;stroke-dasharray:none;stroke-opacity:1"
           id="path961"
           transform="matrix(1.1810299,0,0,1.1810299,-74.185748,-69.88359)" />
        <path
           d="m 446.7851,424.7698 -16.924,16.5132"
           style="fill:#a15252;fill-opacity:1;fill-rule:evenodd;stroke:#a15252;stroke-width:7.9999;stroke-linecap:butt;stroke-linejoin:miter;stroke-dasharray:none;stroke-opacity:1"
           id="path963"
           transform="matrix(1.1810299,0,0,1.1810299,-74.185748,-69.88359)" />
        <path
           d="m 422.6499,330.1267 c 6.2236,0 11.2689,5.0453 11.2689,11.269 0,6.2236 -5.0453,11.2689 -11.2689,11.2689 -6.2237,0 -11.269,-5.0453 -11.269,-11.2689 0,-6.2237 5.0453,-11.269 11.269,-11.269 z m 0,6.6275 c 2.5634,0 4.6414,2.0781 4.6414,4.6415 0,2.5634 -2.078,4.6415 -4.6414,4.6415 -2.5634,0 -4.6415,-2.0781 -4.6415,-4.6415 0,-2.5634 2.0781,-4.6415 4.6415,-4.6415 z"
           style="fill:#a15252;fill-opacity:1;fill-rule:evenodd"
           id="path965"
           transform="matrix(1.1810299,0,0,1.1810299,-74.185748,-69.88359)" />
        <path
           d="m 398.3169,396.763 7.7279,6e-4 c 2.5793,0.0134 1.7051,0.1322 3.2599,-1.8917 3.9606,-5.1552 5.6813,-3.7754 8.8153,1.4921 l 3.5499,5.7229 c 2.0385,3.0701 5.9937,8.0701 10.3039,8.0701 h 1.3737 c 3.3838,0 6.8512,-3.4266 8.6323,-5.2769 1.4104,-1.4651 5.2753,-6.9968 5.6203,-8.2889 h -9.788 c -1.2376,1.8483 -3.1838,4.9798 -5.6667,4.9798 -1.713,0 -3.6229,-3.557 -4.4313,-4.8415 -3.1987,-5.0824 -7.4558,-13.7042 -14.6295,-13.7042 -4.8846,0 -9.536,5.284 -12.1232,9.17 -0.6046,0.908 -2.5689,3.6572 -2.6445,4.5677 z"
           style="fill:#a15252;fill-opacity:1;fill-rule:evenodd"
           id="path967"
           transform="matrix(1.1810299,0,0,1.1810299,-74.185748,-69.88359)" />
      </g>
      <text
         x="283.60468"
         y="418.96469"
         id="text972"
         style="font-style:normal;font-variant:normal;font-weight:normal;font-stretch:normal;font-family:'Bad Comic';-inkscape-font-specification:'Bad Comic';text-align:center;text-anchor:middle"
         transform="matrix(1.1984373,0,0,1.1984373,-60.089799,-290.99289)"><tspan
           sodipodi:role="line"
           id="tspan46635"
           x="283.60468"
           y="418.96469"><tspan
             font-family="'Bad Comic'"
             font-size="10px"
             fill="#2e373f"
             id="tspan970"
             style="font-style:normal;font-variant:normal;font-weight:normal;font-stretch:normal;font-family:'Bad Comic';-inkscape-font-specification:'Bad Comic';text-align:center;text-anchor:middle">AQUÍ</tspan></tspan><tspan
           sodipodi:role="line"
           id="tspan46637"
           x="283.60468"
           y="433.96469"><tspan
             font-family="'Bad Comic'"
             font-size="10px"
             fill="#2e373f"
             id="tspan46639"
             style="font-style:normal;font-variant:normal;font-weight:normal;font-stretch:normal;font-family:'Bad Comic';-inkscape-font-specification:'Bad Comic';text-align:center;text-anchor:middle">EMPECÉ</tspan></tspan></text>
      <text
         x="334.04181"
         y="194.19411"
         id="text976"
         style="text-align:center;text-anchor:middle"
         transform="translate(35.280773,-210.30476)"><tspan
           sodipodi:role="line"
           id="tspan5570"
           x="334.04181"
           y="194.19411"
           style="font-style:normal;font-variant:normal;font-weight:normal;font-stretch:normal;font-family:'Bad Comic';-inkscape-font-specification:'Bad Comic';text-align:center;text-anchor:middle">ELECTRORAYMA</tspan><tspan
           sodipodi:role="line"
           id="tspan5572"
           x="334.04181"
           y="209.19411"
           style="font-style:normal;font-variant:normal;font-weight:normal;font-stretch:normal;font-family:'sage sans';-inkscape-font-specification:'sage sans';text-align:center;text-anchor:middle" /></text>
      <text
         x="111.46127"
         y="305.23849"
         id="text980"
         style="text-align:center;text-anchor:middle"
         transform="translate(-13.451376,-206.76413)"><tspan
           sodipodi:role="line"
           id="tspan33111"
           x="111.46127"
           y="305.23849"
           style="font-style:normal;font-variant:normal;font-weight:normal;font-stretch:normal;font-family:'Bad Comic';-inkscape-font-specification:'Bad Comic';text-align:center;text-anchor:middle">SIEMENS</tspan></text>
      <text
         x="79.713593"
         y="82.987801"
         id="text984"
         style="text-align:center;text-anchor:middle"
         transform="translate(-10.664514,-208.16579)"><tspan
           sodipodi:role="line"
           id="tspan19606"
           x="79.713593"
           y="82.987801"
           style="font-style:normal;font-variant:normal;font-weight:normal;font-stretch:normal;font-family:'Bad Comic';-inkscape-font-specification:'Bad Comic';text-align:center;text-anchor:middle">PROFE DE INSTITUTO</tspan></text>
      <g
         id="Layer1002"
         transform="translate(-26.109947,-195.17452)">
        <path
           d="m 230.311,292.7728 v 1.3555 c -0.7023,-0.2651 -1.3276,-0.3991 -1.8748,-0.3991 -0.3242,0 -0.5823,0.06 -0.7764,0.176 -0.194,0.1171 -0.2931,0.2612 -0.2931,0.4312 0,0.2261 0.2191,0.4272 0.6603,0.6073 l 1.2746,0.6203 c 1.0304,0.4912 1.5416,1.1435 1.5416,1.9628 0,0.6813 -0.2711,1.2246 -0.8183,1.6267 -0.5433,0.4062 -1.2746,0.6073 -2.185,0.6073 -0.4202,0 -0.7973,-0.018 -1.1325,-0.056 -0.3351,-0.036 -0.7203,-0.1101 -1.1475,-0.2161 v -1.4186 c 0.7834,0.2651 1.4967,0.3991 2.1389,0.3991 0.7664,0 1.1476,-0.2221 1.1476,-0.6702 0,-0.2231 -0.1561,-0.4032 -0.4732,-0.5443 l -1.4157,-0.6033 c -0.5222,-0.2361 -0.9104,-0.5222 -1.1645,-0.8613 -0.2501,-0.3422 -0.3771,-0.7343 -0.3771,-1.1825 0,-0.6273 0.2641,-1.1326 0.7863,-1.5167 0.5262,-0.3812 1.2246,-0.5723 2.0929,-0.5723 0.2821,0 0.6073,0.025 0.9675,0.0711 0.3631,0.049 0.7122,0.109 1.0484,0.1831 z"
           style="fill:#009999;fill-rule:evenodd"
           id="path986" />
        <path
           d="m 190.2175,292.7728 v 1.3555 c -0.7024,-0.2651 -1.3266,-0.3991 -1.8739,-0.3991 -0.3251,0 -0.5822,0.06 -0.7763,0.176 -0.1941,0.1171 -0.2931,0.2612 -0.2931,0.4312 0,0.2261 0.2221,0.4272 0.6633,0.6073 l 1.2745,0.6203 c 1.0265,0.4912 1.5387,1.1435 1.5387,1.9628 0,0.6813 -0.2721,1.2246 -0.8154,1.6267 -0.5472,0.4062 -1.2745,0.6073 -2.1879,0.6073 -0.4202,0 -0.7984,-0.018 -1.1335,-0.056 -0.3352,-0.036 -0.7163,-0.1101 -1.1465,-0.2161 v -1.4186 c 0.7863,0.2651 1.4996,0.3991 2.1379,0.3991 0.7663,0 1.1475,-0.2221 1.1475,-0.6702 0,-0.2231 -0.1551,-0.4032 -0.4692,-0.5443 l -1.4156,-0.6033 c -0.5263,-0.2361 -0.9144,-0.5222 -1.1645,-0.8613 -0.2541,-0.3422 -0.3782,-0.7343 -0.3782,-1.1825 0,-0.6273 0.2621,-1.1326 0.7873,-1.5167 0.5223,-0.3812 1.2216,-0.5723 2.09,-0.5723 0.2851,0 0.6062,0.025 0.9704,0.0711 0.3602,0.049 0.7093,0.109 1.0445,0.1831 z"
           style="fill:#009999;fill-rule:evenodd"
           id="path988" />
        <path
           d="m 191.6781,292.6457 h 2.0759 v 6.9881 h -2.0759 z"
           style="fill:#009999;fill-rule:evenodd"
           id="path990" />
        <path
           d="m 200.4419,292.6457 v 1.2916 h -3.0843 v 1.5496 h 2.6752 v 1.1645 h -2.6752 v 1.6268 h 3.1474 v 1.3556 h -5.1453 v -6.9881 z"
           style="fill:#009999;fill-rule:evenodd"
           id="path992" />
        <path
           d="m 210.1332,292.6457 v 6.9881 h -1.938 v -4.6091 l -2.0108,4.6731 h -1.1965 l -1.9338,-4.6731 v 4.6091 h -1.4016 v -6.9881 h 2.5341 l 1.7297,4.2779 1.8098,-4.2779 z"
           style="fill:#009999;fill-rule:evenodd"
           id="path994" />
        <path
           d="m 216.8182,292.6457 v 1.2916 h -3.0675 v 1.5496 h 2.6751 v 1.1645 h -2.6751 v 1.6268 h 3.1305 v 1.3556 h -5.1452 v -6.9881 z"
           style="fill:#009999;fill-rule:evenodd"
           id="path996" />
        <path
           d="m 224.1023,292.6457 v 6.9881 h -2.2019 l -2.471,-4.482 v 4.482 h -1.4007 v -6.9881 h 2.266 l 2.4071,4.4049 v -4.4049 z"
           style="fill:#009999;fill-rule:evenodd"
           id="path998" />
      </g>
      <text
         xml:space="preserve"
         style="font-size:29.3333px;line-height:1.25;font-family:LibbyHand;-inkscape-font-specification:LibbyHand;letter-spacing:0px;word-spacing:0px"
         x="290.71674"
         y="253.25139"
         id="text10064"
         transform="matrix(0.43720031,0,0,0.43720031,201.4425,-110.17258)"><tspan
           sodipodi:role="line"
           id="tspan10062"
           x="290.71674"
           y="253.25139"
           style="font-style:normal;font-variant:normal;font-weight:normal;font-stretch:normal;font-family:'sage sans';-inkscape-font-specification:'sage sans'">Oficina técnica</tspan></text>
      <text
         xml:space="preserve"
         style="font-size:29.3333px;line-height:1.25;font-family:LibbyHand;-inkscape-font-specification:LibbyHand;letter-spacing:0px;word-spacing:0px"
         x="290.71674"
         y="253.25139"
         id="text10064-0"
         transform="matrix(0.43720031,0,0,0.43720031,-70.798767,2.7028454)"><tspan
           sodipodi:role="line"
           id="tspan10062-3"
           x="290.71674"
           y="253.25139"
           style="font-style:normal;font-variant:normal;font-weight:normal;font-stretch:normal;font-family:'sage sans';-inkscape-font-specification:'sage sans'">En Tres Cantos</tspan></text>
      <text
         xml:space="preserve"
         style="font-size:29.3333px;line-height:1.25;font-family:LibbyHand;-inkscape-font-specification:LibbyHand;letter-spacing:0px;word-spacing:0px"
         x="290.71674"
         y="253.25139"
         id="text10064-0-7"
         transform="matrix(0.43720031,0,0,0.43720031,-104.97606,-217.63553)"><tspan
           sodipodi:role="line"
           id="tspan10062-3-2"
           x="290.71674"
           y="253.25139"
           style="font-style:normal;font-variant:normal;font-weight:normal;font-stretch:normal;font-family:'sage sans';-inkscape-font-specification:'sage sans'">CIFP Ferrolterra</tspan></text>
    </g>
  </g>
</svg>
